<?xml version="1.0" encoding="UTF-8" standalone="no"?>
<!-- Created with Inkscape (http://www.inkscape.org/) -->

<svg
   width="73.81897mm"
   height="72.893288mm"
   viewBox="0 0 73.81897 72.893288"
   version="1.1"
   id="svg5"
   inkscape:version="1.2.1 (9c6d41e, 2022-07-14)"
   sodipodi:docname="TimeOfDay.svg"
   xml:space="preserve"
   xmlns:inkscape="http://www.inkscape.org/namespaces/inkscape"
   xmlns:sodipodi="http://sodipodi.sourceforge.net/DTD/sodipodi-0.dtd"
   xmlns:xlink="http://www.w3.org/1999/xlink"
   xmlns="http://www.w3.org/2000/svg"
   xmlns:svg="http://www.w3.org/2000/svg"><sodipodi:namedview
     id="namedview7"
     pagecolor="#ffffff"
     bordercolor="#666666"
     borderopacity="1.0"
     inkscape:showpageshadow="2"
     inkscape:pageopacity="0.0"
     inkscape:pagecheckerboard="0"
     inkscape:deskcolor="#d1d1d1"
     inkscape:document-units="mm"
     showgrid="false"
     inkscape:zoom="2.587745"
     inkscape:cx="104.72438"
     inkscape:cy="139.31048"
     inkscape:window-width="1920"
     inkscape:window-height="1055"
     inkscape:window-x="0"
     inkscape:window-y="0"
     inkscape:window-maximized="1"
     inkscape:current-layer="layer1" /><defs
     id="defs2"><linearGradient
       inkscape:collect="always"
       id="linearGradient54792"><stop
         style="stop-color:#376d43;stop-opacity:1;"
         offset="0"
         id="stop54788" /><stop
         style="stop-color:#4b965b;stop-opacity:1;"
         offset="1"
         id="stop54790" /></linearGradient><linearGradient
       inkscape:collect="always"
       id="linearGradient52727"><stop
         style="stop-color:#2c211f;stop-opacity:0.95294118;"
         offset="0"
         id="stop52725" /><stop
         style="stop-color:#7d5652;stop-opacity:0.94901961;"
         offset="1"
         id="stop52723" /></linearGradient><linearGradient
       inkscape:collect="always"
       id="linearGradient50228"><stop
         style="stop-color:#2b2b2b;stop-opacity:1;"
         offset="0"
         id="stop50224" /><stop
         style="stop-color:#3e479f;stop-opacity:1;"
         offset="1"
         id="stop50226" /></linearGradient><linearGradient
       inkscape:collect="always"
       id="linearGradient25977"><stop
         style="stop-color:#491ccf;stop-opacity:1;"
         offset="0"
         id="stop25971" /><stop
         style="stop-color:#1a0b33;stop-opacity:1;"
         offset="1"
         id="stop25975" /></linearGradient><linearGradient
       inkscape:collect="always"
       id="linearGradient25215"><stop
         style="stop-color:#fff45d;stop-opacity:1;"
         offset="0"
         id="stop25211" /><stop
         style="stop-color:#fff4e0;stop-opacity:1;"
         offset="1"
         id="stop25213" /></linearGradient><linearGradient
       inkscape:collect="always"
       id="linearGradient24458"><stop
         style="stop-color:#0087ff;stop-opacity:0.36829033;"
         offset="0"
         id="stop24454" /><stop
         style="stop-color:#f7f4f7;stop-opacity:0;"
         offset="1"
         id="stop24456" /></linearGradient><linearGradient
       inkscape:collect="always"
       id="linearGradient23208"><stop
         style="stop-color:#0087ff;stop-opacity:0.39461192;"
         offset="0"
         id="stop23204" /><stop
         style="stop-color:#f7f4f7;stop-opacity:1;"
         offset="1"
         id="stop23206" /></linearGradient><linearGradient
       inkscape:collect="always"
       id="linearGradient18553"><stop
         style="stop-color:#ffffff;stop-opacity:1;"
         offset="0.16859671"
         id="stop18547" /><stop
         style="stop-color:#5fb6ff;stop-opacity:1;"
         offset="1"
         id="stop18551" /></linearGradient><linearGradient
       inkscape:collect="always"
       id="linearGradient16951"><stop
         style="stop-color:#ac8492;stop-opacity:1;"
         offset="0"
         id="stop16947" /><stop
         style="stop-color:#8c5765;stop-opacity:1;"
         offset="1"
         id="stop16949" /></linearGradient><linearGradient
       inkscape:collect="always"
       id="linearGradient14039"><stop
         style="stop-color:#ab8391;stop-opacity:1;"
         offset="0"
         id="stop14035" /><stop
         style="stop-color:#8d5766;stop-opacity:1;"
         offset="1"
         id="stop14037" /></linearGradient><linearGradient
       inkscape:collect="always"
       id="linearGradient12205"><stop
         style="stop-color:#ff8805;stop-opacity:1;"
         offset="0"
         id="stop12199" /><stop
         style="stop-color:#f4bcf5;stop-opacity:1;"
         offset="0.54482287"
         id="stop12201" /><stop
         style="stop-color:#9892dc;stop-opacity:1;"
         offset="1"
         id="stop12203" /></linearGradient><linearGradient
       inkscape:collect="always"
       id="linearGradient10489"><stop
         style="stop-color:#ff9b67;stop-opacity:1;"
         offset="0.13349518"
         id="stop10485" /><stop
         style="stop-color:#fffa92;stop-opacity:1;"
         offset="1"
         id="stop10487" /></linearGradient><inkscape:path-effect
       effect="copy_rotate"
       starting_point="115.05921,91.471596"
       origin="111.55001,91.471596"
       id="path-effect9606"
       is_visible="true"
       lpeversion="1.2"
       lpesatellites=""
       method="normal"
       num_copies="9"
       starting_angle="0"
       rotation_angle="40"
       gap="-0.01"
       copies_to_360="true"
       mirror_copies="false"
       split_items="false"
       link_styles="false" /><linearGradient
       inkscape:collect="always"
       id="linearGradient1867"><stop
         style="stop-color:#ffa43b;stop-opacity:1;"
         offset="0"
         id="stop1863" /><stop
         style="stop-color:#eff3aa;stop-opacity:1;"
         offset="0.48773175"
         id="stop1871" /><stop
         style="stop-color:#52dddd;stop-opacity:0;"
         offset="1"
         id="stop1865" /></linearGradient><inkscape:path-effect
       effect="copy_rotate"
       starting_point="115.05921,91.471596"
       origin="111.55001,91.471596"
       id="path-effect381"
       is_visible="true"
       lpeversion="1.2"
       lpesatellites=""
       method="normal"
       num_copies="9"
       starting_angle="0"
       rotation_angle="40"
       gap="-0.01"
       copies_to_360="true"
       mirror_copies="false"
       split_items="false"
       link_styles="false" /><inkscape:path-effect
       effect="copy_rotate"
       starting_point="0,0"
       origin="101.14,58.150286"
       id="path-effect379"
       is_visible="true"
       lpeversion="1.2"
       lpesatellites=""
       method="normal"
       num_copies="10"
       starting_angle="0"
       rotation_angle="36"
       gap="-0.01"
       copies_to_360="true"
       mirror_copies="false"
       split_items="false"
       link_styles="false" /><linearGradient
       inkscape:collect="always"
       xlink:href="#linearGradient18553"
       id="linearGradient1869"
       x1="100.98789"
       y1="205.16342"
       x2="100.98789"
       y2="55.684265"
       gradientUnits="userSpaceOnUse"
       gradientTransform="matrix(0.4876484,0,0,0.4876484,-1.7798485,-21.495185)" /><clipPath
       clipPathUnits="userSpaceOnUse"
       id="clipPath9528"><ellipse
         style="fill:url(#linearGradient9532);fill-opacity:1;stroke-width:0.264583"
         id="ellipse9530"
         cx="108.43575"
         cy="190.60074"
         rx="75.688721"
         ry="74.739578" /></clipPath><linearGradient
       inkscape:collect="always"
       xlink:href="#linearGradient1867"
       id="linearGradient9532"
       gradientUnits="userSpaceOnUse"
       gradientTransform="translate(7.4478554,60.176913)"
       x1="100.98789"
       y1="205.16342"
       x2="100.98789"
       y2="55.684265" /><clipPath
       clipPathUnits="userSpaceOnUse"
       id="clipPath9536"><ellipse
         style="fill:url(#linearGradient9540);fill-opacity:1;stroke-width:0.264583"
         id="ellipse9538"
         cx="103.11361"
         cy="137.02393"
         rx="75.688721"
         ry="74.739578" /></clipPath><linearGradient
       inkscape:collect="always"
       xlink:href="#linearGradient1867"
       id="linearGradient9540"
       gradientUnits="userSpaceOnUse"
       gradientTransform="translate(2.1257117,6.6000905)"
       x1="100.98789"
       y1="205.16342"
       x2="100.98789"
       y2="55.684265" /><clipPath
       clipPathUnits="userSpaceOnUse"
       id="clipPath9544"><ellipse
         style="fill:url(#linearGradient9548);fill-opacity:1;stroke-width:0.264583"
         id="ellipse9546"
         cx="103.11361"
         cy="137.02393"
         rx="75.688721"
         ry="74.739578" /></clipPath><linearGradient
       inkscape:collect="always"
       xlink:href="#linearGradient1867"
       id="linearGradient9548"
       gradientUnits="userSpaceOnUse"
       gradientTransform="translate(2.1257117,6.6000905)"
       x1="100.98789"
       y1="205.16342"
       x2="100.98789"
       y2="55.684265" /><clipPath
       clipPathUnits="userSpaceOnUse"
       id="clipPath9552"><ellipse
         style="fill:url(#linearGradient9556);fill-opacity:1;stroke-width:0.264583"
         id="ellipse9554"
         cx="108.43575"
         cy="190.60074"
         rx="75.688721"
         ry="74.739578" /></clipPath><linearGradient
       inkscape:collect="always"
       xlink:href="#linearGradient1867"
       id="linearGradient9556"
       gradientUnits="userSpaceOnUse"
       gradientTransform="translate(7.4478554,60.176913)"
       x1="100.98789"
       y1="205.16342"
       x2="100.98789"
       y2="55.684265" /><linearGradient
       inkscape:collect="always"
       xlink:href="#linearGradient12205"
       id="linearGradient9608"
       gradientUnits="userSpaceOnUse"
       gradientTransform="matrix(0.4876484,0,0,0.4876484,-6.6621915,78.33326)"
       x1="100.98789"
       y1="205.16342"
       x2="100.98789"
       y2="55.684265" /><inkscape:path-effect
       effect="copy_rotate"
       starting_point="115.05921,91.471596"
       origin="111.55001,91.471596"
       id="path-effect381-6"
       is_visible="true"
       lpeversion="1.2"
       lpesatellites=""
       method="normal"
       num_copies="9"
       starting_angle="0"
       rotation_angle="40"
       gap="-0.01"
       copies_to_360="true"
       mirror_copies="false"
       split_items="false"
       link_styles="false" /><linearGradient
       inkscape:collect="always"
       xlink:href="#linearGradient10489"
       id="linearGradient10491"
       x1="41.51194"
       y1="133.72528"
       x2="42.446846"
       y2="112.88978"
       gradientUnits="userSpaceOnUse"
       gradientTransform="translate(-2.9457764,26.188112)" /><clipPath
       clipPathUnits="userSpaceOnUse"
       id="clipPath10502"><g
         id="g10506"><ellipse
           style="fill:url(#linearGradient10508);fill-opacity:1;stroke-width:0.129023"
           id="ellipse10504"
           cx="43.345261"
           cy="123.16339"
           rx="36.909485"
           ry="36.446636" /></g></clipPath><linearGradient
       inkscape:collect="always"
       xlink:href="#linearGradient1867"
       id="linearGradient10508"
       gradientUnits="userSpaceOnUse"
       gradientTransform="matrix(0.4876484,0,0,0.4876484,-5.9013278,59.562421)"
       x1="100.98789"
       y1="205.16342"
       x2="100.98789"
       y2="55.684265" /><clipPath
       clipPathUnits="userSpaceOnUse"
       id="clipPath10510"><g
         id="g10514"><ellipse
           style="fill:url(#linearGradient10516);fill-opacity:1;stroke-width:0.129023"
           id="ellipse10512"
           cx="43.345261"
           cy="123.16339"
           rx="36.909485"
           ry="36.446636" /></g></clipPath><linearGradient
       inkscape:collect="always"
       xlink:href="#linearGradient1867"
       id="linearGradient10516"
       gradientUnits="userSpaceOnUse"
       gradientTransform="matrix(0.4876484,0,0,0.4876484,-5.9013278,59.562421)"
       x1="100.98789"
       y1="205.16342"
       x2="100.98789"
       y2="55.684265" /><clipPath
       clipPathUnits="userSpaceOnUse"
       id="clipPath10527"><g
         id="g10531"><ellipse
           style="fill:url(#linearGradient10533);fill-opacity:1;stroke-width:0.129023"
           id="ellipse10529"
           cx="43.345261"
           cy="123.16339"
           rx="36.909485"
           ry="36.446636" /></g></clipPath><linearGradient
       inkscape:collect="always"
       xlink:href="#linearGradient1867"
       id="linearGradient10533"
       gradientUnits="userSpaceOnUse"
       gradientTransform="matrix(0.4876484,0,0,0.4876484,-5.9013278,59.562421)"
       x1="100.98789"
       y1="205.16342"
       x2="100.98789"
       y2="55.684265" /><clipPath
       clipPathUnits="userSpaceOnUse"
       id="clipPath10535"><g
         id="g10539"><ellipse
           style="fill:url(#linearGradient10541);fill-opacity:1;stroke-width:0.129023"
           id="ellipse10537"
           cx="43.345261"
           cy="123.16339"
           rx="36.909485"
           ry="36.446636" /></g></clipPath><linearGradient
       inkscape:collect="always"
       xlink:href="#linearGradient1867"
       id="linearGradient10541"
       gradientUnits="userSpaceOnUse"
       gradientTransform="matrix(0.4876484,0,0,0.4876484,-5.9013278,59.562421)"
       x1="100.98789"
       y1="205.16342"
       x2="100.98789"
       y2="55.684265" /><clipPath
       clipPathUnits="userSpaceOnUse"
       id="clipPath9536-7"><ellipse
         style="fill:url(#linearGradient9540);fill-opacity:1;stroke-width:0.264583"
         id="ellipse9538-9"
         cx="103.11361"
         cy="137.02393"
         rx="75.688721"
         ry="74.739578" /></clipPath><linearGradient
       inkscape:collect="always"
       xlink:href="#linearGradient25977"
       id="linearGradient371"
       gradientUnits="userSpaceOnUse"
       gradientTransform="matrix(0.4876484,0,0,0.4876484,-6.6807654,185.05644)"
       x1="100.98789"
       y1="205.16342"
       x2="100.98789"
       y2="55.684265" /><clipPath
       clipPathUnits="userSpaceOnUse"
       id="clipPath9544-3"><ellipse
         style="fill:url(#linearGradient9548);fill-opacity:1;stroke-width:0.264583"
         id="ellipse9546-6"
         cx="103.11361"
         cy="137.02393"
         rx="75.688721"
         ry="74.739578" /></clipPath><linearGradient
       inkscape:collect="always"
       xlink:href="#linearGradient14039"
       id="linearGradient14041"
       x1="28.116211"
       y1="106.65361"
       x2="28.008759"
       y2="94.420731"
       gradientUnits="userSpaceOnUse" /><linearGradient
       inkscape:collect="always"
       xlink:href="#linearGradient16951"
       id="linearGradient16953"
       x1="60.89262"
       y1="113.31926"
       x2="60.787258"
       y2="102.94617"
       gradientUnits="userSpaceOnUse"
       gradientTransform="translate(-0.76086366,18.770838)" /><linearGradient
       inkscape:collect="always"
       xlink:href="#linearGradient23208"
       id="linearGradient23210"
       x1="157.62973"
       y1="80.751724"
       x2="158.66045"
       y2="120.90773"
       gradientUnits="userSpaceOnUse" /><linearGradient
       inkscape:collect="always"
       xlink:href="#linearGradient24458"
       id="linearGradient24460"
       x1="53.739147"
       y1="104.338"
       x2="53.674263"
       y2="139.4942"
       gradientUnits="userSpaceOnUse" /><linearGradient
       inkscape:collect="always"
       xlink:href="#linearGradient25215"
       id="linearGradient25217"
       x1="54.605175"
       y1="47.399353"
       x2="54.732349"
       y2="31.706213"
       gradientUnits="userSpaceOnUse"
       gradientTransform="matrix(0.97237825,0,0,0.97237825,2.048374,2.1122128)" /><filter
       inkscape:collect="always"
       style="color-interpolation-filters:sRGB"
       id="filter25241"
       x="-0.024772478"
       y="-0.024772478"
       width="1.049545"
       height="1.049545"><feGaussianBlur
         inkscape:collect="always"
         stdDeviation="0.25143374"
         id="feGaussianBlur25243" /></filter><clipPath
       clipPathUnits="userSpaceOnUse"
       id="clipPath48370"><ellipse
         style="fill:url(#linearGradient48374);fill-opacity:1;stroke-width:0.129023"
         id="ellipse48372"
         cx="42.565815"
         cy="248.65746"
         rx="36.909485"
         ry="36.446636" /></clipPath><linearGradient
       inkscape:collect="always"
       xlink:href="#linearGradient25977"
       id="linearGradient48374"
       gradientUnits="userSpaceOnUse"
       gradientTransform="matrix(0.48764841,0,0,0.48764841,-6.6807654,185.05644)"
       x1="100.98789"
       y1="205.16342"
       x2="100.98789"
       y2="55.684265" /><clipPath
       clipPathUnits="userSpaceOnUse"
       id="clipPath48383"><ellipse
         style="fill:url(#linearGradient48387);fill-opacity:1;stroke-width:0.129023"
         id="ellipse48385"
         cx="42.584396"
         cy="141.93423"
         rx="36.909485"
         ry="36.446636" /></clipPath><linearGradient
       inkscape:collect="always"
       xlink:href="#linearGradient25977"
       id="linearGradient48387"
       gradientUnits="userSpaceOnUse"
       gradientTransform="matrix(0.48764841,0,0,0.48764841,-6.6621734,78.333243)"
       x1="100.98789"
       y1="205.16342"
       x2="100.98789"
       y2="55.684265" /><clipPath
       clipPathUnits="userSpaceOnUse"
       id="clipPath48389"><ellipse
         style="fill:url(#linearGradient48393);fill-opacity:1;stroke-width:0.129023"
         id="ellipse48391"
         cx="43.345261"
         cy="123.16339"
         rx="36.909485"
         ry="36.446636" /></clipPath><linearGradient
       inkscape:collect="always"
       xlink:href="#linearGradient25977"
       id="linearGradient48393"
       gradientUnits="userSpaceOnUse"
       gradientTransform="matrix(0.48764841,0,0,0.48764841,-5.9013097,59.562405)"
       x1="100.98789"
       y1="205.16342"
       x2="100.98789"
       y2="55.684265" /><clipPath
       clipPathUnits="userSpaceOnUse"
       id="clipPath48395"><ellipse
         style="fill:url(#linearGradient48399);fill-opacity:1;stroke-width:0.129023"
         id="ellipse48397"
         cx="42.584396"
         cy="141.93423"
         rx="36.909485"
         ry="36.446636" /></clipPath><linearGradient
       inkscape:collect="always"
       xlink:href="#linearGradient25977"
       id="linearGradient48399"
       gradientUnits="userSpaceOnUse"
       gradientTransform="matrix(0.48764841,0,0,0.48764841,-6.6621734,78.333243)"
       x1="100.98789"
       y1="205.16342"
       x2="100.98789"
       y2="55.684265" /><clipPath
       clipPathUnits="userSpaceOnUse"
       id="clipPath48401"><ellipse
         style="fill:url(#linearGradient48405);fill-opacity:1;stroke-width:0.129023"
         id="ellipse48403"
         cx="43.345261"
         cy="123.16339"
         rx="36.909485"
         ry="36.446636" /></clipPath><linearGradient
       inkscape:collect="always"
       xlink:href="#linearGradient25977"
       id="linearGradient48405"
       gradientUnits="userSpaceOnUse"
       gradientTransform="matrix(0.48764841,0,0,0.48764841,-5.9013097,59.562405)"
       x1="100.98789"
       y1="205.16342"
       x2="100.98789"
       y2="55.684265" /><clipPath
       clipPathUnits="userSpaceOnUse"
       id="clipPath48407"><ellipse
         style="fill:url(#linearGradient48411);fill-opacity:1;stroke-width:0.129023"
         id="ellipse48409"
         cx="43.345261"
         cy="123.16339"
         rx="36.909485"
         ry="36.446636" /></clipPath><linearGradient
       inkscape:collect="always"
       xlink:href="#linearGradient25977"
       id="linearGradient48411"
       gradientUnits="userSpaceOnUse"
       gradientTransform="matrix(0.48764841,0,0,0.48764841,-5.9013097,59.562405)"
       x1="100.98789"
       y1="205.16342"
       x2="100.98789"
       y2="55.684265" /><clipPath
       clipPathUnits="userSpaceOnUse"
       id="clipPath48413"><ellipse
         style="fill:url(#linearGradient48417);fill-opacity:1;stroke-width:0.129023"
         id="ellipse48415"
         cx="43.345261"
         cy="123.16339"
         rx="36.909485"
         ry="36.446636" /></clipPath><linearGradient
       inkscape:collect="always"
       xlink:href="#linearGradient25977"
       id="linearGradient48417"
       gradientUnits="userSpaceOnUse"
       gradientTransform="matrix(0.48764841,0,0,0.48764841,-5.9013097,59.562405)"
       x1="100.98789"
       y1="205.16342"
       x2="100.98789"
       y2="55.684265" /><clipPath
       clipPathUnits="userSpaceOnUse"
       id="clipPath48419"><ellipse
         style="fill:url(#linearGradient48423);fill-opacity:1;stroke-width:0.129023"
         id="ellipse48421"
         cx="43.345261"
         cy="123.16339"
         rx="36.909485"
         ry="36.446636" /></clipPath><linearGradient
       inkscape:collect="always"
       xlink:href="#linearGradient25977"
       id="linearGradient48423"
       gradientUnits="userSpaceOnUse"
       gradientTransform="matrix(0.48764841,0,0,0.48764841,-5.9013097,59.562405)"
       x1="100.98789"
       y1="205.16342"
       x2="100.98789"
       y2="55.684265" /><clipPath
       clipPathUnits="userSpaceOnUse"
       id="clipPath48425"><ellipse
         style="fill:url(#linearGradient48429);fill-opacity:1;stroke-width:0.129023"
         id="ellipse48427"
         cx="42.584396"
         cy="141.93423"
         rx="36.909485"
         ry="36.446636" /></clipPath><linearGradient
       inkscape:collect="always"
       xlink:href="#linearGradient25977"
       id="linearGradient48429"
       gradientUnits="userSpaceOnUse"
       gradientTransform="matrix(0.48764841,0,0,0.48764841,-6.6621734,78.333243)"
       x1="100.98789"
       y1="205.16342"
       x2="100.98789"
       y2="55.684265" /><clipPath
       clipPathUnits="userSpaceOnUse"
       id="clipPath48431"><ellipse
         style="fill:url(#linearGradient48435);fill-opacity:1;stroke-width:0.129023"
         id="ellipse48433"
         cx="42.584396"
         cy="141.93423"
         rx="36.909485"
         ry="36.446636" /></clipPath><linearGradient
       inkscape:collect="always"
       xlink:href="#linearGradient25977"
       id="linearGradient48435"
       gradientUnits="userSpaceOnUse"
       gradientTransform="matrix(0.48764841,0,0,0.48764841,-6.6621734,78.333243)"
       x1="100.98789"
       y1="205.16342"
       x2="100.98789"
       y2="55.684265" /><clipPath
       clipPathUnits="userSpaceOnUse"
       id="clipPath48439"><ellipse
         style="fill:url(#linearGradient48443);fill-opacity:1;stroke-width:0.129023"
         id="ellipse48441"
         cx="47.46674"
         cy="42.105789"
         rx="36.909485"
         ry="36.446636" /></clipPath><linearGradient
       inkscape:collect="always"
       xlink:href="#linearGradient18553"
       id="linearGradient48443"
       gradientUnits="userSpaceOnUse"
       gradientTransform="matrix(0.48764841,0,0,0.48764841,-1.7798485,-21.495185)"
       x1="100.98789"
       y1="205.16342"
       x2="100.98789"
       y2="55.684265" /><clipPath
       clipPathUnits="userSpaceOnUse"
       id="clipPath48445"><ellipse
         style="fill:url(#linearGradient48449);fill-opacity:1;stroke-width:0.111736"
         id="ellipse48447"
         cx="47.441082"
         cy="42.78281"
         rx="31.964336"
         ry="31.563501" /></clipPath><linearGradient
       inkscape:collect="always"
       xlink:href="#linearGradient18553"
       id="linearGradient48449"
       gradientUnits="userSpaceOnUse"
       gradientTransform="matrix(0.42231307,0,0,0.42231307,4.7925723,-12.296879)"
       x1="100.98789"
       y1="205.16342"
       x2="100.98789"
       y2="55.684265" /><clipPath
       clipPathUnits="userSpaceOnUse"
       id="clipPath48451"><ellipse
         style="fill:url(#linearGradient48455);fill-opacity:1;stroke-width:0.264582"
         id="ellipse48453"
         cx="103.11361"
         cy="137.02393"
         rx="75.688721"
         ry="74.739578" /></clipPath><linearGradient
       inkscape:collect="always"
       xlink:href="#linearGradient18553"
       id="linearGradient48455"
       gradientUnits="userSpaceOnUse"
       gradientTransform="translate(2.1257114,6.6000913)"
       x1="100.98789"
       y1="205.16342"
       x2="100.98789"
       y2="55.684265" /><clipPath
       clipPathUnits="userSpaceOnUse"
       id="clipPath48457"><ellipse
         style="fill:url(#linearGradient48461);fill-opacity:1;stroke-width:0.264582"
         id="ellipse48459"
         cx="103.11361"
         cy="137.02393"
         rx="75.688721"
         ry="74.739578" /></clipPath><linearGradient
       inkscape:collect="always"
       xlink:href="#linearGradient18553"
       id="linearGradient48461"
       gradientUnits="userSpaceOnUse"
       gradientTransform="translate(2.1257114,6.6000913)"
       x1="100.98789"
       y1="205.16342"
       x2="100.98789"
       y2="55.684265" /><clipPath
       clipPathUnits="userSpaceOnUse"
       id="clipPath48463"><ellipse
         style="fill:url(#linearGradient48467);fill-opacity:1;stroke-width:0.264582"
         id="ellipse48465"
         cx="108.43575"
         cy="190.60074"
         rx="75.688721"
         ry="74.739578" /></clipPath><linearGradient
       inkscape:collect="always"
       xlink:href="#linearGradient18553"
       id="linearGradient48467"
       gradientUnits="userSpaceOnUse"
       gradientTransform="translate(7.4478553,60.176915)"
       x1="100.98789"
       y1="205.16342"
       x2="100.98789"
       y2="55.684265" /><clipPath
       clipPathUnits="userSpaceOnUse"
       id="clipPath48469"><ellipse
         style="fill:url(#linearGradient48473);fill-opacity:1;stroke-width:0.129023"
         id="ellipse48471"
         cx="47.46674"
         cy="42.105789"
         rx="36.909485"
         ry="36.446636" /></clipPath><linearGradient
       inkscape:collect="always"
       xlink:href="#linearGradient18553"
       id="linearGradient48473"
       gradientUnits="userSpaceOnUse"
       gradientTransform="matrix(0.48764841,0,0,0.48764841,-1.7798485,-21.495185)"
       x1="100.98789"
       y1="205.16342"
       x2="100.98789"
       y2="55.684265" /><clipPath
       clipPathUnits="userSpaceOnUse"
       id="clipPath48475"><ellipse
         style="fill:url(#linearGradient48479);fill-opacity:1;stroke-width:0.129023"
         id="ellipse48477"
         cx="47.46674"
         cy="42.105789"
         rx="36.909485"
         ry="36.446636" /></clipPath><linearGradient
       inkscape:collect="always"
       xlink:href="#linearGradient18553"
       id="linearGradient48479"
       gradientUnits="userSpaceOnUse"
       gradientTransform="matrix(0.48764841,0,0,0.48764841,-1.7798485,-21.495185)"
       x1="100.98789"
       y1="205.16342"
       x2="100.98789"
       y2="55.684265" /><clipPath
       clipPathUnits="userSpaceOnUse"
       id="clipPath48481"><ellipse
         style="fill:url(#linearGradient48485);fill-opacity:1;stroke-width:0.264582"
         id="ellipse48483"
         cx="108.43575"
         cy="190.60074"
         rx="75.688721"
         ry="74.739578" /></clipPath><linearGradient
       inkscape:collect="always"
       xlink:href="#linearGradient18553"
       id="linearGradient48485"
       gradientUnits="userSpaceOnUse"
       gradientTransform="translate(7.4478553,60.176915)"
       x1="100.98789"
       y1="205.16342"
       x2="100.98789"
       y2="55.684265" /><clipPath
       clipPathUnits="userSpaceOnUse"
       id="clipPath48487"><ellipse
         style="fill:url(#linearGradient48491);fill-opacity:1;stroke-width:0.129023"
         id="ellipse48489"
         cx="47.46674"
         cy="42.105789"
         rx="36.909485"
         ry="36.446636" /></clipPath><linearGradient
       inkscape:collect="always"
       xlink:href="#linearGradient18553"
       id="linearGradient48491"
       gradientUnits="userSpaceOnUse"
       gradientTransform="matrix(0.48764841,0,0,0.48764841,-1.7798485,-21.495185)"
       x1="100.98789"
       y1="205.16342"
       x2="100.98789"
       y2="55.684265" /><linearGradient
       inkscape:collect="always"
       xlink:href="#linearGradient50228"
       id="linearGradient50230"
       x1="1806.3204"
       y1="2125.1086"
       x2="1862.1215"
       y2="66.802795"
       gradientUnits="userSpaceOnUse" /><linearGradient
       inkscape:collect="always"
       xlink:href="#linearGradient50228"
       id="linearGradient50715"
       gradientUnits="userSpaceOnUse"
       x1="1806.3204"
       y1="2125.1086"
       x2="1862.1215"
       y2="66.802795" /><linearGradient
       inkscape:collect="always"
       xlink:href="#linearGradient50228"
       id="linearGradient50717"
       gradientUnits="userSpaceOnUse"
       x1="1806.3204"
       y1="2125.1086"
       x2="1862.1215"
       y2="66.802795" /><linearGradient
       inkscape:collect="always"
       xlink:href="#linearGradient52727"
       id="linearGradient52729"
       x1="1722.5022"
       y1="2132.5664"
       x2="1775.8588"
       y2="86.291725"
       gradientUnits="userSpaceOnUse" /><linearGradient
       inkscape:collect="always"
       xlink:href="#linearGradient54792"
       id="linearGradient54794"
       x1="1710.5171"
       y1="2132.5664"
       x2="1771.4794"
       y2="86.291725"
       gradientUnits="userSpaceOnUse" /><linearGradient
       inkscape:collect="always"
       xlink:href="#linearGradient52727"
       id="linearGradient60061"
       gradientUnits="userSpaceOnUse"
       x1="1722.5022"
       y1="2132.5664"
       x2="1775.8588"
       y2="86.291725" /><linearGradient
       inkscape:collect="always"
       xlink:href="#linearGradient52727"
       id="linearGradient60063"
       gradientUnits="userSpaceOnUse"
       x1="1722.5022"
       y1="2132.5664"
       x2="1775.8588"
       y2="86.291725" /><linearGradient
       inkscape:collect="always"
       xlink:href="#linearGradient54792"
       id="linearGradient60065"
       gradientUnits="userSpaceOnUse"
       x1="1710.5171"
       y1="2132.5664"
       x2="1771.4794"
       y2="86.291725" /><linearGradient
       inkscape:collect="always"
       xlink:href="#linearGradient54792"
       id="linearGradient60067"
       gradientUnits="userSpaceOnUse"
       x1="1710.5171"
       y1="2132.5664"
       x2="1771.4794"
       y2="86.291725" /><clipPath
       clipPathUnits="userSpaceOnUse"
       id="clipPath67778"><ellipse
         style="display:inline;fill:url(#linearGradient67782);fill-opacity:1;stroke-width:0.129023"
         id="ellipse67780"
         cx="47.46674"
         cy="42.105789"
         rx="36.909485"
         ry="36.446636"
         clip-path="url(#clipPath48487)"
         transform="matrix(204.70955,0,0,204.70955,-4176.8183,-11822.828)" /></clipPath><linearGradient
       inkscape:collect="always"
       xlink:href="#linearGradient18553"
       id="linearGradient67782"
       gradientUnits="userSpaceOnUse"
       gradientTransform="matrix(0.4876484,0,0,0.4876484,-1.7798485,-21.495185)"
       x1="100.98789"
       y1="205.16342"
       x2="100.98789"
       y2="55.684265" /><clipPath
       clipPathUnits="userSpaceOnUse"
       id="clipPath67784"><ellipse
         style="display:inline;fill:url(#linearGradient67788);fill-opacity:1;stroke-width:0.129023"
         id="ellipse67786"
         cx="47.46674"
         cy="42.105789"
         rx="36.909485"
         ry="36.446636"
         clip-path="url(#clipPath48487)" /></clipPath><linearGradient
       inkscape:collect="always"
       xlink:href="#linearGradient18553"
       id="linearGradient67788"
       gradientUnits="userSpaceOnUse"
       gradientTransform="matrix(0.4876484,0,0,0.4876484,-1.7798485,-21.495185)"
       x1="100.98789"
       y1="205.16342"
       x2="100.98789"
       y2="55.684265" /><clipPath
       clipPathUnits="userSpaceOnUse"
       id="clipPath67793"><ellipse
         style="display:inline;fill:url(#linearGradient67797);fill-opacity:1;stroke-width:0.129023"
         id="ellipse67795"
         cx="42.584396"
         cy="141.93423"
         rx="36.909485"
         ry="36.446636"
         clip-path="url(#clipPath48431)"
         transform="matrix(204.70955,0,0,204.70955,-3177.356,-32043.299)" /></clipPath><linearGradient
       inkscape:collect="always"
       xlink:href="#linearGradient12205"
       id="linearGradient67797"
       gradientUnits="userSpaceOnUse"
       gradientTransform="matrix(0.4876484,0,0,0.4876484,-6.6621915,78.33326)"
       x1="100.98789"
       y1="205.16342"
       x2="100.98789"
       y2="55.684265" /><clipPath
       clipPathUnits="userSpaceOnUse"
       id="clipPath67799"><ellipse
         style="display:inline;fill:url(#linearGradient67803);fill-opacity:1;stroke-width:0.129023"
         id="ellipse67801"
         cx="42.584396"
         cy="141.93423"
         rx="36.909485"
         ry="36.446636"
         clip-path="url(#clipPath48431)" /></clipPath><linearGradient
       inkscape:collect="always"
       xlink:href="#linearGradient12205"
       id="linearGradient67803"
       gradientUnits="userSpaceOnUse"
       gradientTransform="matrix(0.4876484,0,0,0.4876484,-6.6621915,78.33326)"
       x1="100.98789"
       y1="205.16342"
       x2="100.98789"
       y2="55.684265" /></defs><g
     inkscape:groupmode="layer"
     id="layer3"
     inkscape:label="Night"
     transform="translate(-61.51031,-210.59113)"
     style="display:inline"><g
       id="g48548"
       transform="translate(55.85398,-1.6196699)"><ellipse
         style="fill:url(#linearGradient371);fill-opacity:1;stroke-width:0.129023"
         id="ellipse48339"
         cx="42.565815"
         cy="248.65744"
         rx="36.909485"
         ry="36.446636" /><path
         id="circle359"
         style="fill:#ffffff;fill-opacity:1;stroke-width:0.142618"
         d="m 39.773492,231.51635 a 12.343325,12.343325 0 0 0 -12.34307,12.34307 12.343325,12.343325 0 0 0 12.34307,12.34308 12.343325,12.343325 0 0 0 0.38693,-0.0143 13.19269,13.19269 0 0 1 -6.021,-11.06364 13.19269,13.19269 0 0 1 10.02565,-12.79976 12.343325,12.343325 0 0 0 -4.39158,-0.80844 z" /><path
         sodipodi:type="star"
         style="fill:#ffffff;fill-opacity:1;stroke-width:0"
         id="path36401"
         inkscape:flatsided="false"
         sodipodi:sides="4"
         sodipodi:cx="105.73771"
         sodipodi:cy="55.649323"
         sodipodi:r1="5.3181486"
         sodipodi:r2="0.6492213"
         sodipodi:arg1="1.5707963"
         sodipodi:arg2="2.3561945"
         inkscape:rounded="0"
         inkscape:randomized="0"
         d="m 105.73771,60.967471 -0.45907,-4.85908 -4.85908,-0.459068 4.85908,-0.459069 0.45907,-4.85908 0.45907,4.85908 4.85908,0.459068 -4.85908,0.459069 z"
         transform="matrix(0.36872315,0,0,0.36872315,17.695872,205.58563)" /><path
         sodipodi:type="star"
         style="fill:#ffffff;fill-opacity:1;stroke-width:0"
         id="path37337"
         inkscape:flatsided="false"
         sodipodi:sides="4"
         sodipodi:cx="105.73771"
         sodipodi:cy="55.649323"
         sodipodi:r1="5.3181486"
         sodipodi:r2="0.6492213"
         sodipodi:arg1="1.5707963"
         sodipodi:arg2="2.3561945"
         inkscape:rounded="0"
         inkscape:randomized="0"
         d="m 105.73771,60.967471 -0.45907,-4.85908 -4.85908,-0.459068 4.85908,-0.459069 0.45907,-4.85908 0.45907,4.85908 4.85908,0.459068 -4.85908,0.459069 z"
         transform="matrix(0.36872315,0,0,0.36872315,10.733852,219.52012)" /><path
         sodipodi:type="star"
         style="fill:#ffffff;fill-opacity:1;stroke-width:0"
         id="path37339"
         inkscape:flatsided="false"
         sodipodi:sides="4"
         sodipodi:cx="105.73771"
         sodipodi:cy="55.649323"
         sodipodi:r1="5.3181486"
         sodipodi:r2="0.6492213"
         sodipodi:arg1="1.5707963"
         sodipodi:arg2="2.3561945"
         inkscape:rounded="0"
         inkscape:randomized="0"
         d="m 105.73771,60.967471 -0.45907,-4.85908 -4.85908,-0.459068 4.85908,-0.459069 0.45907,-4.85908 0.45907,4.85908 4.85908,0.459068 -4.85908,0.459069 z"
         transform="matrix(0.36872315,0,0,0.36872315,-22.215658,223.80598)" /><path
         sodipodi:type="star"
         style="fill:#ffffff;fill-opacity:1;stroke-width:0"
         id="path37341"
         inkscape:flatsided="false"
         sodipodi:sides="4"
         sodipodi:cx="105.73771"
         sodipodi:cy="55.649323"
         sodipodi:r1="5.3181486"
         sodipodi:r2="0.6492213"
         sodipodi:arg1="1.5707963"
         sodipodi:arg2="2.3561945"
         inkscape:rounded="0"
         inkscape:randomized="0"
         d="m 105.73771,60.967471 -0.45907,-4.85908 -4.85908,-0.459068 4.85908,-0.459069 0.45907,-4.85908 0.45907,4.85908 4.85908,0.459068 -4.85908,0.459069 z"
         transform="matrix(0.36872315,0,0,0.36872315,-14.520358,243.01469)" /><path
         sodipodi:type="star"
         style="fill:#ffffff;fill-opacity:1;stroke-width:0"
         id="path38069"
         inkscape:flatsided="false"
         sodipodi:sides="4"
         sodipodi:cx="105.73771"
         sodipodi:cy="55.649323"
         sodipodi:r1="5.3181486"
         sodipodi:r2="0.6492213"
         sodipodi:arg1="1.5707963"
         sodipodi:arg2="2.3561945"
         inkscape:rounded="0"
         inkscape:randomized="0"
         d="m 105.73771,60.967471 -0.45907,-4.85908 -4.85908,-0.459068 4.85908,-0.459069 0.45907,-4.85908 0.45907,4.85908 4.85908,0.459068 -4.85908,0.459069 z"
         transform="matrix(0.36872315,0,0,0.36872315,17.042122,242.67419)" /><circle
         style="fill:#ffffff;fill-opacity:1;stroke-width:0"
         id="path38849"
         cx="23.983213"
         cy="227.22362"
         r="0.80757999" /><circle
         style="fill:#ffffff;fill-opacity:1;stroke-width:0"
         id="circle38851"
         cx="35.596325"
         cy="220.30083"
         r="0.30369902" /><circle
         style="fill:#ffffff;fill-opacity:1;stroke-width:0"
         id="circle38853"
         cx="33.842358"
         cy="229.09991"
         r="0.30369902" /><circle
         style="fill:#ffffff;fill-opacity:1;stroke-width:0"
         id="circle38855"
         cx="50.311749"
         cy="216.96812"
         r="0.30369902" /><ellipse
         style="fill:#ffffff;fill-opacity:1;stroke-width:0"
         id="circle38857"
         cx="51.815624"
         cy="229.75256"
         rx="0.53592706"
         ry="0.51354796" /><ellipse
         style="fill:#ffffff;fill-opacity:1;stroke-width:0"
         id="ellipse38859"
         cx="66.404053"
         cy="240.15977"
         rx="0.34069872"
         ry="0.32647192" /><ellipse
         style="fill:#ffffff;fill-opacity:1;stroke-width:0"
         id="ellipse38861"
         cx="60.062923"
         cy="247.54895"
         rx="0.20883191"
         ry="0.20011157" /><ellipse
         style="fill:#ffffff;fill-opacity:1;stroke-width:0"
         id="ellipse38863"
         cx="48.428631"
         cy="267.3306"
         rx="0.20883191"
         ry="0.20011157" /><ellipse
         style="fill:#ffffff;fill-opacity:1;stroke-width:0"
         id="ellipse38865"
         cx="16.626249"
         cy="258.92856"
         rx="0.21915877"
         ry="0.21000721" /><circle
         style="fill:#ffffff;fill-opacity:1;stroke-width:0"
         id="circle41045"
         cx="66.08342"
         cy="262.28867"
         r="0.80757999" /><circle
         style="fill:#ffffff;fill-opacity:1;stroke-width:0"
         id="circle41047"
         cx="68.645599"
         cy="239.81912"
         r="0.80757999" /><ellipse
         style="fill:#ffffff;fill-opacity:1;stroke-width:0"
         id="ellipse41049"
         cx="39.432919"
         cy="264.68475"
         rx="0.20883191"
         ry="0.20011157" /><ellipse
         style="fill:#ffffff;fill-opacity:1;stroke-width:0"
         id="ellipse41051"
         cx="39.432919"
         cy="272.62225"
         rx="0.37057692"
         ry="0.35510248" /><path
         id="path41779"
         style="fill:#230f51;fill-opacity:0.693854;stroke-width:0.0412876"
         d="m 70.934688,248.55072 a 4.3649272,5.758511 88.643821 0 0 -0.552421,0.0253 4.3649272,5.758511 88.643821 0 0 -3.762044,1.4888 1.9684966,2.9441496 87.29007 0 0 -3.021004,-1.22783 1.9684966,2.9441496 87.29007 0 0 -2.668054,1.76888 3.9342723,5.0537932 89.115043 0 0 -2.216403,-0.20309 3.9342723,5.0537932 89.115043 0 0 -4.535123,4.32739 3.9342723,5.0537932 89.115043 0 0 5.45083,3.50159 4.6625255,7.446848 86.882803 0 0 7.133414,2.20504 4.6625255,7.446848 86.882803 0 0 6.565491,-3.58015 4.3649272,5.758511 88.643821 0 0 0.133325,-0.0475 2.7429414,4.7395167 86.532103 0 0 2.115117,0.10904 2.7429414,4.7395167 86.532103 0 0 3.136242,-1.00924 36.909485,36.446636 0 0 0 0.521932,-3.33778 2.7429414,4.7395167 86.532103 0 0 -2.84272,-1.08779 4.3649272,5.758511 88.643821 0 0 -5.458582,-2.93264 z" /><path
         id="path44717"
         style="fill:#230f51;fill-opacity:0.693854;stroke-width:0.0412876"
         d="m 16.571598,246.36739 a 4.6625255,7.446848 78.944407 0 0 -2.603458,0.28525 4.6625255,7.446848 78.944407 0 0 -6.0079024,4.45245 4.3649272,5.758511 80.705425 0 0 -0.1255737,0.0656 2.7429414,4.7395167 78.593707 0 0 -2.076359,0.17776 36.909485,36.446636 0 0 0 1.1957926,6.79132 4.3649272,5.758511 80.705425 0 0 5.0684245,0.75964 4.3649272,5.758511 80.705425 0 0 3.520199,-1.99419 1.9684966,2.9441496 79.351674 0 0 3.161564,0.79892 1.9684966,2.9441496 79.351674 0 0 2.39882,-2.1208 3.9342723,5.0537932 81.176647 0 0 2.222603,-0.10439 3.9342723,5.0537932 81.176647 0 0 3.894336,-4.91236 3.9342723,5.0537932 81.176647 0 0 -5.882328,-2.71508 4.6625255,7.446848 78.944407 0 0 -4.766118,-1.48415 z" /><g
         id="g48348"
         clip-path="url(#clipPath48370)"><path
           style="display:inline;fill:#000000;fill-opacity:1;stroke:none;stroke-width:0.129023px;stroke-linecap:butt;stroke-linejoin:miter;stroke-opacity:1"
           d="m 29.740901,156.6691 c 0,0 19.252529,-18.56863 25.056672,-18.48759 9.906367,0.13832 34.794113,28.20886 34.794113,28.20886 l -34.656874,15.43879 -32.33404,-15.43879 z"
           id="path46236"
           sodipodi:nodetypes="cscccc"
           clip-path="url(#clipPath10535)"
           transform="translate(-0.82206624,125.52219)" /><path
           id="path46238"
           style="display:inline;fill:#434cb2;fill-opacity:1;stroke:none;stroke-width:0.129023px;stroke-linecap:butt;stroke-linejoin:miter;stroke-opacity:1"
           d="m 54.797617,138.18146 c -4.103883,-0.0573 -14.906051,9.18916 -20.897295,14.62302 0.718872,-0.2704 1.329641,-0.57732 1.750891,-0.94929 4.027304,-3.51258 8.091883,-7.01711 12.571489,-9.94893 1.542783,-0.94173 3.055044,-1.99666 4.854262,-2.38568 0.376767,-0.10034 2.000324,-0.0209 2.38089,0.027 0.971181,0.13904 1.949389,0.50724 2.887912,0.94323 3.198052,1.56449 6.058451,3.65124 8.816951,5.87814 4.568256,3.73836 10.938071,8.81303 16.62112,13.78612 -7.969067,-8.27736 -22.094242,-21.87735 -28.98622,-21.97358 z"
           clip-path="url(#clipPath10527)"
           transform="translate(-0.82206624,125.52219)" /><path
           style="display:inline;fill:#1b1b1b;fill-opacity:1;stroke:none;stroke-width:0.129023px;stroke-linecap:butt;stroke-linejoin:miter;stroke-opacity:1"
           d="m 1.3738502,151.73228 c 0,0 19.2525298,-18.56863 25.0566728,-18.48759 9.906367,0.13832 34.794114,28.20886 34.794114,28.20886 L 26.567763,176.89234 -5.7662784,161.45355 Z"
           id="path46232"
           sodipodi:nodetypes="cscccc"
           clip-path="url(#clipPath10510)"
           transform="translate(-0.76086367,125.49104)" /><path
           id="path46234"
           style="display:inline;fill:#434cb2;fill-opacity:1;stroke:none;stroke-width:0.129023px;stroke-linecap:butt;stroke-linejoin:miter;stroke-opacity:1"
           d="m 26.430565,133.24464 c -4.103883,-0.0573 -14.906049,9.18916 -20.8972939,14.62301 0.7188718,-0.27039 1.3296416,-0.57731 1.7508913,-0.94928 4.0273066,-3.51259 8.0918846,-7.01711 12.5714886,-9.94893 1.542783,-0.94173 3.055045,-1.99666 4.854263,-2.38568 0.376767,-0.10034 2.000325,-0.0209 2.380889,0.027 0.971183,0.13904 1.949388,0.50724 2.887912,0.94323 3.198051,1.56449 6.058449,3.65124 8.816951,5.87814 4.568259,3.73836 10.938073,8.81303 16.621118,13.78612 -7.969063,-8.27736 -22.094241,-21.87735 -28.986219,-21.97358 z"
           clip-path="url(#clipPath10502)"
           transform="translate(-0.76086367,125.49104)" /></g></g><g
       id="g48755"
       transform="matrix(0.00488497,0,0,0.00488497,71.356688,261.56611)"
       style="display:inline;fill:url(#linearGradient50230);fill-opacity:1;stroke:#ffffff;stroke-width:13.3848;stroke-dasharray:none;stroke-dashoffset:773.56;stroke-opacity:0.126674"><path
         style="display:inline;fill:url(#linearGradient50715);fill-opacity:1;stroke:#ffffff;stroke-width:13.3848;stroke-dasharray:none;stroke-dashoffset:773.56;stroke-opacity:0.126674"
         d="m 1116.9905,2124.7745 c -10.3671,-1.5831 -29.256,-6.0715 -36.2465,-8.6128 -10.2545,-3.728 -13.7089,-7.8723 -23.2355,-27.8755 -10.8559,-22.7946 -11.8398,-24.7468 -17.5626,-34.8461 -2.757,-4.8653 -7.6289,-15.0653 -10.8263,-22.6667 -3.1975,-7.6013 -9.7846,-22.7433 -14.638,-33.6489 -4.8534,-10.9056 -8.8244,-20.7648 -8.8244,-21.9093 0,-1.1444 -2.4059,-7.9479 -5.3463,-15.1187 -2.94045,-7.1709 -6.94675,-19.5117 -8.90275,-27.4241 -3.2295,-13.0634 -3.5654,-16.8383 -3.6537,-41.0528 -0.1032,-28.3132 0.7283,-40.5231 3.882,-57.0063 3.1869,-16.6565 4.7009,-21.9017 12.98675,-44.9937 18.3206,-51.0576 32.5743,-81.079 52.0876,-109.7072 12.2984,-18.0431 17.0712,-26.327 28.2086,-48.9595 4.15,-8.4333 8.378,-16.8656 9.3957,-18.7384 1.0177,-1.8727 3.1087,-6.768 4.6466,-10.8784 1.5379,-4.1105 3.6696,-8.1984 4.7371,-9.0844 2.8075,-2.33 13.3126,-36.3089 14.7859,-47.8249 0.3184,-2.4894 1.1372,-6.9894 1.8195,-10 0.6822,-3.0107 0.9899,-10.5739 0.6837,-16.8072 -0.8449,-17.2012 -4.654,-27.2847 -16.873,-44.6667 -15.3181,-21.7907 -34.7266,-57.458 -39.1408,-71.9299 -3.2843,-10.7673 -4.791,-13.0785 -6.6088,-10.1372 -0.4305,0.6966 -4.5159,4.114 -9.0787,7.5947 -11.9164,9.0899 -27.3844,20.9667 -42.2913,32.4724 -90.81095,70.0917 -146.82875,107.5805 -188.67135,126.2645 -11.8296,5.2823 -14.9672,6.5488 -44,17.7616 -8.0667,3.1155 -20.6667,8.047 -28,10.9588 -7.3334,2.9119 -25.9334,9.9935 -41.3334,15.7368 -37.8626,14.1207 -41.9357,16.0478 -46.6666,22.079 -10.4564,13.3304 -17.1013,20.7404 -23.2427,25.9188 -3.6811,3.104 -7.0478,6.762 -7.4816,8.1288 -0.4339,1.3669 -10.233,11.9352 -21.7759,23.4852 -11.5428,11.5498 -28.4524,29.0001 -37.5768,38.7782 -14.389,15.42 -24.712,25.449 -63.923,62.1026 -26.5171,24.7874 -57.9495,47.7369 -86,62.7902 -6.6,3.5419 -13.8,7.7742 -16,9.4048 -7.5772,5.6167 -26.6839,15.1318 -34.6667,17.264 -9.4434,2.5223 -33.7721,2.8774 -45.9423,0.6704 -10.8856,-1.9738 -26.6419,-7.3232 -37.9458,-12.8826 -11.10066,-5.4596 -29.51452,-21.719 -36.62169,-32.337 -9.03783,-13.5022 -10.14023,-16.8468 -10.14895,-30.7908 -0.007,-11.578 0.37107,-13.467 4.40162,-21.9792 2.42525,-5.1218 5.33829,-10.3388 6.47344,-11.5932 2.3797,-2.6294 13.8291,-9.2608 48.45038,-28.0616 45.9019,-24.9268 60.8709,-34.6781 94.6979,-61.6893 5.5171,-4.4055 12.1171,-9.6179 14.6666,-11.5829 8.2947,-6.3935 33.8984,-26.5511 36.6469,-28.8519 1.473,-1.2331 6.273,-5.2279 10.6667,-8.8775 25.4963,-21.1784 74.9519,-69.1286 86.6693,-84.031 11.8715,-15.0986 28.006,-30.2446 47.3192,-44.42 11.4634,-8.4139 30.7033,-24.4168 41.1337,-34.2132 18.9226,-17.7724 90.3211,-106.5989 99.6978,-124.0335 l 3.5855,-6.6667 -9.2085,8.6816 c -40.11,37.8148 -64.2316,51.5983 -104.7917,59.8796 -6.8292,1.3944 -16.0168,2.944 -20.4168,3.4435 -4.4,0.4995 -10.1,1.1605 -12.6666,1.4691 -11.6415,1.399 -51.3203,0.5577 -67.3334,-1.4279 -40.9376,-5.0761 -88.2921,-20.2191 -137.5475,-43.9849 -13.3687,-6.4504 -18.6078,-8.3458 -22,-7.9594 -58.4795,6.6629 -69.3493,7.5065 -89.11914,6.9162 -29.74169,-0.8879 -35.32529,-3.9359 -29.2035,-15.9419 5.39753,-10.5857 20.76376,-32.3195 29.5275,-41.7635 4.77434,-5.1448 13.64874,-12.9448 19.72104,-17.3333 6.0722,-4.3885 23.9962,-17.6262 39.831,-29.4172 73.394,-54.6509 77.1769,-57.0805 110.124,-70.7271 6.6,-2.7338 16.2,-6.7072 21.3333,-8.8299 5.1333,-2.1227 12.6333,-4.4596 16.6667,-5.1931 11.9602,-2.1751 52.8454,-15.9564 81.3333,-27.4153 14.6169,-5.8795 40.1156,-19.0045 50.6578,-26.0752 17.9901,-12.0661 40.5841,-31.3479 70.6543,-60.2966 15.8485,-15.2575 22.3484,-21.8955 63.8761,-65.23296 19.373,-20.2173 22.7839,-22.9824 34.4318,-27.9131 4.2423,-1.7959 11.9133,-5.0478 17.0467,-7.2266 15.3982,-6.5355 36.8288,-17.0234 45.1582,-22.0999 4.3036,-2.6229 14.2073,-7.463 22.008,-10.7556 15.4555,-6.5238 76.9933,-37.08933 79.2841,-39.38014 0.779,-0.77899 3.6335,-1.41635 6.3434,-1.41635 2.7099,0 9.173,-1.8068 14.3624,-4.0151 20.153,-8.57588 29.9534,-11.54882 59.51045,-18.05254 46.9581,-10.33261 95.6987,-2.82566 127.4788,19.63406 1.6942,1.19736 4.6385,0.5117 14,-3.26027 6.52,-2.62708 17.2545,-6.28579 23.8545,-8.13048 19.1068,-5.34031 63.7266,-13.93656 83.3334,-16.0546 24.5536,-2.65245 59.1204,-1.33943 86,3.26672 11.9032,2.03975 30.178,0.93448 44,-2.66115 5.8666,-1.52613 25.3666,-7.50389 43.3333,-13.2839 17.9667,-5.78002 37.4667,-11.83244 43.3333,-13.44986 5.8667,-1.61741 12.1667,-3.46478 14,-4.10528 7.8051,-2.72674 42.7083,-10.79858 68.6667,-15.88005 15.4,-3.01463 33.4,-6.64828 40,-8.07479 51.24,-11.07493 102.3739,-14.57036 145.7857,-9.96565 l 19.119,2.02795 9.5477,-6.52094 c 23.4011,-15.9827 53.3936,-33.2045 86.8809,-49.88741 55.4234,-27.61107 92.596,-39.03851 187.7518,-57.71777 l 18.4185,-3.61558 4.0875,-8.12668 c 9.5946,-19.07572 22.3129,-35.28428 47.7422,-60.84414 13.1088,-13.17612 19.3303,-18.94091 37.5867,-34.82812 1.3981,-1.21674 5.0243,-4.21674 8.0579,-6.66667 11.8001,-9.52945 37.215,-31.86337 55.4173,-48.69897 30.9951,-28.66795 48.1813,-40.73132 76.9455,-54.00926 33.407,-15.42117 39.326,-18.37985 39.326,-19.6579 0,-0.77483 -8.6068,-12.99922 -19.1262,-27.16531 -30.432,-40.9816 -41.631,-58.90196 -53.9046,-86.25631 -15.2168,-33.91396 -19.8604,-59.61113 -18.5524,-102.66666 0.8225,-27.07684 2.4334,-36.04274 8.8909,-49.48632 10.1976,-21.23012 28.3079,-36.96569 48.6923,-42.3076 27.8992,-7.31121 68.5601,3.55653 105.3333,28.15319 16.1895,10.82871 22.7895,16.14005 39.8607,32.07789 7.9901,7.45956 15.0401,13.76284 15.6666,14.00728 0.6267,0.24445 1.1394,-0.78915 1.1394,-2.29687 0,-3.74843 8.938,-30.01484 12.8825,-37.85861 12.798,-25.44861 32.19,-44.10701 60.7219,-58.42496 20.5609,-10.318002 29.8853,-12.460472 54.3956,-12.498562 17.6688,-0.0275 22.203,0.41274 31.2578,3.03456 26.0788,7.551072 46.1002,23.386952 61.0236,48.266662 12.6415,21.07533 31.1782,56.8253 35.1188,67.73036 2.0411,5.64831 5.7603,14.76964 8.265,20.26964 2.5046,5.5 7.5518,17.5 11.216,26.66667 11.2128,28.05172 23.4474,50.77728 30.191,56.07972 1.977,1.5544 8.0419,6.82236 13.4775,11.70657 12.266,11.02142 26.0129,21.64596 46.3845,35.84907 8.6528,6.03279 22.3324,16.12219 30.3991,22.42089 8.0667,6.29872 23.4808,17.41228 34.2537,24.69683 23.0091,15.55861 29.7378,21.94557 40.0476,38.01436 13.9283,21.70835 16.7926,33.41159 12.5687,51.35465 -0.9653,4.10048 -1.5341,8.60048 -1.2643,10 0.27,1.39952 0.8531,11.54458 1.2959,22.54458 0.9805,24.35697 3.0445,30.20969 14.7181,41.73509 12.419,12.26128 23.4696,19.16204 83.7136,52.27627 17.8104,9.78981 42.7003,32.24144 47.8794,43.18893 12.628,26.69343 0.667,68.50747 -27.8794,97.46287 -15.3101,15.52956 -30.1818,24.32725 -51.4056,30.41028 -6.0896,1.74536 -25.058,4.92656 -29.3754,4.92656 -0.6902,0 -0.3467,2.17328 0.7632,4.82949 1.1098,2.65623 2.0178,6.1848 2.0178,7.84125 0,1.65647 1.5616,7.1332 3.4702,12.17051 3.1952,8.43336 3.3666,9.90744 2.164,18.61168 -1.9251,13.93219 -7.6607,24.81915 -20.2455,38.42893 -15.1283,16.36039 -50.2353,37.63679 -70.722,42.86039 -20.7748,5.2972 -42.6979,2.9476 -62.1919,-6.6652 -12.8996,-6.3611 -20.5498,-12.1362 -38.629,-29.16075 l -10.8208,-10.18969 -10.2964,1.97003 c -5.6631,1.08352 -14.4831,1.97002 -19.6002,1.97002 -10.8773,0 -10.5805,-0.13566 -30.4617,13.92559 -8.4333,5.9646 -18.4377,12.7378 -22.232,15.0515 -6.5877,4.0173 -41.4155,16.3563 -46.1667,16.3563 -1.2473,0 -2.268,0.3018 -2.268,0.6706 0,1.2402 5.3167,47.7951 7.9176,69.3294 1.4171,11.73326 2.9347,24.93326 3.3724,29.33326 0.7235,7.2728 1.5799,14.7656 5.9434,52 0.7734,6.6 1.7349,16.5 2.1366,22 0.4018,5.5 1.2959,14.5 1.9871,20 0.6913,5.5 2.766,23.2 4.6105,39.3333 1.8446,16.1334 3.9664,31.5364 4.7154,34.229 0.9926,3.5694 4.6968,8.0475 13.6726,16.5297 20.2983,19.1819 26.5616,22.0443 56.3111,25.7351 5.8667,0.7279 15.7667,2.8669 22,4.7533 18.3809,5.5629 36.9613,11.4238 53.3752,16.8365 8.4564,2.7886 19.5564,5.7547 24.6667,6.5914 5.1104,0.8366 14.9914,2.7304 21.9581,4.2085 6.9667,1.4781 20.7667,4.3852 30.6667,6.4603 9.9,2.0751 27.3,5.8878 38.6666,8.4726 22.2395,5.0574 31.7554,6.9841 56.6667,11.4737 24.9679,4.4997 58.91,13.9316 69.7767,19.3896 10.4582,5.2529 21.7608,14.223 30.3068,24.0525 16.4889,18.9657 26.6713,28.7856 41.0629,39.6009 8.1695,6.1393 21.7536,16.3317 30.1869,22.6497 8.4334,6.318 16.5334,12.5938 18,13.9463 1.4667,1.3524 8.9667,7.0811 16.6667,12.7304 15.9975,11.7369 23.5363,15.6221 92,47.4137 85.9844,39.9274 91.4055,43.5567 109.0201,72.9867 8.138,13.5969 10.1032,20.2883 9.36,31.87 -1.3565,21.1363 -15.8324,37.3411 -42.058,47.0809 -13.206,4.9046 -39.2364,5.7984 -54.7338,1.8795 -15.8112,-3.9984 -32.9435,-11.1657 -54.255,-22.6976 -10.2666,-5.5555 -29.1666,-14.9791 -42,-20.9412 -12.8333,-5.9621 -25.996,-12.1328 -29.2504,-13.7125 -3.2544,-1.5798 -7.0189,-2.8723 -8.3656,-2.8723 -1.3465,0 -7.0838,-4.6101 -12.7494,-10.2447 -21.9816,-21.8612 -41.3208,-33.7784 -68.9679,-42.4993 -40.1168,-12.6544 -55.4064,-19.8776 -83.9761,-39.6724 l -18.6427,-12.9169 -8.6907,-0.071 c -8.8106,-0.072 -12.5992,-0.316 -40.0238,-2.5805 -8.4334,-0.6964 -27.0334,-1.9058 -41.3334,-2.6875 -14.3,-0.7817 -35,-2.0327 -46,-2.7799 -11,-0.7472 -29.3,-1.9061 -40.6666,-2.5753 -11.3667,-0.6692 -25.1667,-1.5495 -30.6667,-1.9561 -24.2887,-1.7958 -104.6739,-7.3246 -118,-8.116 -16.7377,-0.994 -16.6801,-1.8607 -0.7201,10.8466 28.2696,22.5084 79.0708,76.1356 131.9144,139.2528 12.0346,14.3746 34.8057,50.8484 34.8057,55.7508 0,0.9226 2.55,2.7786 5.6667,4.1244 3.8781,1.6748 10.1872,7.2788 19.9893,17.7559 26.3483,28.1623 34.6071,40.4661 45.8915,68.3689 10.0694,24.8986 13.8069,58.0894 8.9788,79.7368 -5.3006,23.7656 -17.445,38.3582 -37.468,45.0214 -7.421,2.4696 -10.7122,2.8068 -21.5742,2.2105 -18.6226,-1.0221 -37.0333,-7.9636 -62.8052,-23.6796 -43.5986,-26.5871 -80.8204,-72.5809 -121.3554,-149.9557 -29.5264,-56.3611 -37.2623,-67.3723 -73.0958,-104.0447 -29.1216,-29.8033 -46.7502,-44.8893 -67.561,-57.816 -12.7815,-7.9393 -46.5484,-24.1016 -58.5636,-28.0311 -27.6267,-9.0349 -64.4684,-15.3873 -108.7698,-18.7542 -9.9,-0.7526 -21,-1.6318 -24.6666,-1.954 -3.6667,-0.3223 -14.4667,-0.9492 -24,-1.3931 -9.5334,-0.4439 -20.0334,-1.0539 -23.3334,-1.3556 -3.3,-0.3016 -12,-0.92 -19.3333,-1.3743 -55.0889,-3.412 -109.4357,-11.4741 -137.9851,-20.4696 l -8.6516,-2.726 -12.6817,7.2338 c -23.5311,13.4224 -41.4404,19.7781 -60.6816,21.535 -17.7193,1.6179 -59.2697,-12.1394 -74.1287,-24.544 -1.5193,-1.2684 -4.0038,-3.3562 -5.5209,-4.6396 -2.6109,-2.2085 -4.3749,-2.8614 -6.7089,-2.4828 -0.5638,0.092 -5.3638,0.8052 -10.6667,1.5863 -5.3028,0.7811 -13.2493,1.9547 -17.6589,2.6081 -17.8458,2.6446 -88.4503,5.5007 -186.4274,7.5418 -27.0801,0.564 -61.5378,-1.2528 -79.6201,-4.1983 -1.7976,-0.2928 -7.7684,-1.1996 -13.2684,-2.0151 -23.2092,-3.441 -52.836,-11.4172 -80.6667,-21.7172 -19.7088,-7.2941 -62.0334,-27.0881 -79.3333,-37.1017 -8.8332,-5.1132 -68.6105,-35.8879 -69.7089,-35.8879 -1.9914,0 -16.5119,21.9383 -21.6212,32.6667 -11.3214,23.7713 -15.7331,43.3112 -22.0036,97.4555 -5.8794,50.7662 -8.8531,66.2229 -17.4658,90.7845 -4.309,12.2883 -16.0324,36.9056 -19.3022,40.5316 -1.0442,1.1577 -1.8983,2.5775 -1.8983,3.1548 0,3.3499 -43.242,59.9544 -62.5447,81.8721 -4.1004,4.656 -9.1108,10.6203 -11.1343,13.2542 -2.0234,2.6337 -10.1707,11.7244 -18.1051,20.2013 -7.9344,8.4769 -18.2138,19.8288 -22.8433,25.2263 -4.6294,5.3974 -10.3814,10.6344 -12.7822,11.6376 -3.0859,1.2893 -7.8171,6.4973 -16.1444,17.7712 -12.6792,17.1657 -32.689,45.9694 -39.4431,56.7776 -2.2914,3.6666 -6.1081,9.6666 -8.4816,13.3333 -2.3736,3.6667 -5.6081,9.9563 -7.1879,13.9769 -1.5798,4.0207 -4.2841,10.3966 -6.0095,14.1688 -5.7704,12.6151 -15.5569,41.0659 -18.0525,52.481 -2.9425,13.4588 -2.5445,28.049 1.0498,38.4853 2.3874,6.9316 2.6509,7.1795 10.3975,9.7773 19.5882,6.569 31.0667,14.3399 41.8753,28.3499 12.3697,16.0333 15.743,38.2309 8.5431,56.216 -6.7261,16.8016 -24.5064,32.0891 -45.0326,38.7192 -8.7892,2.8389 -13.8379,3.5508 -27.4378,3.8685 -9.1667,0.2143 -18.4667,0.1147 -20.6667,-0.2213 z m 1390,-762.5836 c 0,-1.3968 -20.2764,-31.7543 -28.4341,-42.5713 -15.0339,-19.9345 -38.4288,-46 -41.2871,-46 -1.9359,0 -24.7933,11.8194 -32.7101,16.9141 -22.0275,14.1754 -36.8508,21.256 -65.3111,31.1971 -4.6251,1.6155 -7.9251,3.3641 -7.3333,3.8858 1.9677,1.7349 19.559,5.2185 33.7424,6.6818 7.7,0.7944 14.9,1.7026 16,2.0181 1.1,0.3155 4.4,0.9221 7.3333,1.3479 17.476,2.5368 30.8555,5.3063 51.4656,10.6531 12.7605,3.3104 32.2011,8.359 43.2011,11.219 20.8456,5.4199 23.3333,5.9161 23.3333,4.6544 z"
         id="path103"
         inkscape:connector-curvature="0"
         sodipodi:nodetypes="cccccsscccccsscccccccccccccccccccccccccccccccccccccsscccsccccccccccsccccsccsccscsccscsssccssscccsccsccccsssccscccsccccccccccccccccscsccsscsccccccccsccssccccccccccccssccccccccscccccccsccccccssscsccscccccccscccccsccscccccccccccccsccccsccsccsccccccccsccccscsccccscscs" /><path
         style="display:inline;fill:url(#linearGradient50717);fill-opacity:1;stroke:#ffffff;stroke-width:13.3848;stroke-dasharray:none;stroke-dashoffset:773.56;stroke-opacity:0.126674"
         d=""
         id="path101"
         inkscape:connector-curvature="0" /></g></g><g
     inkscape:label="Evening"
     inkscape:groupmode="layer"
     id="layer1"
     style="display:inline"
     transform="translate(-61.510311,-112.51268)"><path
       id="path268"
       style="display:none;fill:#ffea17;fill-opacity:1;stroke-width:0.160081"
       inkscape:transform-center-y="-1.4833153"
       d="m 108.04082,65.879212 3.5092,-15.859736 3.50919,15.859736 z m -15.629473,8.243144 -7.506238,-14.404933 12.882637,9.893599 z m -6.67428,16.361047 -15.009424,-6.209902 16.228155,-0.701863 z m 5.403883,16.823437 -15.489534,4.89081 11.980339,-10.96892 z m 14.95351,9.41394 -8.721919,13.70306 2.126789,-16.10349 z m 17.50622,-2.40042 2.12678,16.10349 -8.72191,-13.70306 z m 11.86758,-13.09162 11.98033,10.96892 -15.48953,-4.89082 z m 0.67596,-17.657092 16.22816,0.701873 -15.00943,6.209892 z m -10.83194,-13.960619 12.88265,-9.893593 -7.50625,14.404927 z"
       sodipodi:nodetypes="cccc"
       inkscape:path-effect="#path-effect381"
       inkscape:original-d="m 108.04082,65.879212 3.5092,-15.859736 3.50919,15.859736 z"
       class="UnoptimicedTransforms"
       transform="matrix(0.33063161,0,0,0.33063161,17.359503,12.334286)" /><g
       id="g48519"
       transform="translate(55.835399,7.0250941)"
       clip-path="url(#clipPath67799)"><ellipse
         style="display:inline;fill:url(#linearGradient9608);fill-opacity:1;stroke-width:0.129023"
         id="ellipse9574"
         cx="42.584396"
         cy="141.93423"
         rx="36.909485"
         ry="36.446636"
         clip-path="url(#clipPath48431)" /><circle
         style="fill:url(#linearGradient10491);fill-opacity:1;stroke-width:0.123617"
         id="path111-6"
         cx="39.050877"
         cy="149.68619"
         r="10.698789"
         clip-path="url(#clipPath48425)" /><path
         style="fill:#000000;fill-opacity:1;stroke:none;stroke-width:0.129023px;stroke-linecap:butt;stroke-linejoin:miter;stroke-opacity:1"
         d="m 29.740901,156.6691 c 0,0 19.252529,-18.56863 25.056672,-18.48759 9.906367,0.13832 34.794113,28.20886 34.794113,28.20886 l -34.656874,15.43879 -32.33404,-15.43879 z"
         id="path9576"
         sodipodi:nodetypes="cscccc"
         clip-path="url(#clipPath48419)"
         transform="translate(-0.76086366,18.770838)" /><path
         id="path9578"
         style="fill:#582600;fill-opacity:1;stroke:none;stroke-width:0.129023px;stroke-linecap:butt;stroke-linejoin:miter;stroke-opacity:1"
         d="m 54.797617,138.18146 c -4.103883,-0.0573 -14.906051,9.18916 -20.897295,14.62302 0.718872,-0.2704 1.329641,-0.57732 1.750891,-0.94929 4.027304,-3.51258 8.091883,-7.01711 12.571489,-9.94893 1.542783,-0.94173 3.055044,-1.99666 4.854262,-2.38568 0.376767,-0.10034 2.000324,-0.0209 2.38089,0.027 0.971181,0.13904 1.949389,0.50724 2.887912,0.94323 3.198052,1.56449 6.058451,3.65124 8.816951,5.87814 4.568256,3.73836 10.938071,8.81303 16.62112,13.78612 -7.969067,-8.27736 -22.094242,-21.87735 -28.98622,-21.97358 z"
         clip-path="url(#clipPath48413)"
         transform="translate(-0.76086366,18.770838)" /><path
         style="fill:#1b1b1b;fill-opacity:1;stroke:none;stroke-width:0.129023px;stroke-linecap:butt;stroke-linejoin:miter;stroke-opacity:1"
         d="m 1.3738502,151.73228 c 0,0 19.2525298,-18.56863 25.0566728,-18.48759 9.906367,0.13832 34.794114,28.20886 34.794114,28.20886 L 26.567763,176.89234 -5.7662784,161.45355 Z"
         id="path9592"
         sodipodi:nodetypes="cscccc"
         clip-path="url(#clipPath48407)"
         transform="translate(-0.76086366,18.770838)" /><path
         id="path9594"
         style="fill:#582600;fill-opacity:1;stroke:none;stroke-width:0.129023px;stroke-linecap:butt;stroke-linejoin:miter;stroke-opacity:1"
         d="m 26.430565,133.24464 c -4.103883,-0.0573 -14.906049,9.18916 -20.8972939,14.62301 0.7188718,-0.27039 1.3296416,-0.57731 1.7508913,-0.94928 4.0273066,-3.51259 8.0918846,-7.01711 12.5714886,-9.94893 1.542783,-0.94173 3.055045,-1.99666 4.854263,-2.38568 0.376767,-0.10034 2.000325,-0.0209 2.380889,0.027 0.971183,0.13904 1.949388,0.50724 2.887912,0.94323 3.198051,1.56449 6.058449,3.65124 8.816951,5.87814 4.568259,3.73836 10.938073,8.81303 16.621118,13.78612 -7.969063,-8.27736 -22.094241,-21.87735 -28.986219,-21.97358 z"
         clip-path="url(#clipPath48401)"
         transform="translate(-0.76086366,18.770838)" /><path
         id="path413"
         style="fill:#ffffff;fill-opacity:1;stroke-width:0.0419174"
         d="m 56.955916,120.48903 a 2.0214441,2.9551783 87.118315 0 0 -2.678191,1.81684 4.0402897,5.0724787 89.024164 0 0 -2.224114,-0.20892 4.0402897,5.0724787 89.024164 0 0 -4.552347,4.44419 4.0402897,5.0724787 89.024164 0 0 5.471154,3.59592 4.7878539,7.4748706 86.711515 0 0 7.159808,2.2647 4.7878539,7.4748706 86.711515 0 0 6.589702,-3.67663 4.4825138,5.7798482 88.518639 0 0 0.133677,-0.0491 2.8166253,4.7574295 86.36637 0 0 2.123075,0.11196 2.8166253,4.7574295 86.36637 0 0 4.393427,-3.19867 2.8166253,4.7574295 86.36637 0 0 -3.574776,-2.38224 4.4825138,5.7798482 88.518639 0 0 -6.033357,-2.98591 4.4825138,5.7798482 88.518639 0 0 -3.775704,1.5292 2.0214441,2.9551783 87.118315 0 0 -3.032354,-1.26129 z"
         clip-path="url(#clipPath48395)" /><g
         id="g17069"
         transform="translate(-0.76086366,18.770838)"
         clip-path="url(#clipPath48389)"><path
           id="path411"
           style="fill:#ffffff;fill-opacity:1;stroke-width:0.047833"
           d="m 31.238523,108.07761 a 2.3067222,3.3722305 87.118315 0 0 3.056153,-2.07324 4.6104792,5.7883368 89.024164 0 0 2.537993,0.2384 4.6104792,5.7883368 89.024164 0 0 5.194802,-5.07138 4.6104792,5.7883368 89.024164 0 0 -6.243276,-4.103389 5.4635441,8.5297684 86.711515 0 0 -8.170242,-2.58431 5.4635441,8.5297684 86.711515 0 0 -7.51968,4.195497 5.1151126,6.5955345 88.518639 0 0 -0.152542,0.05608 3.2141241,5.428826 86.36637 0 0 -2.422695,-0.127767 3.2141241,5.428826 86.36637 0 0 -5.013454,3.650089 3.2141241,5.428826 86.36637 0 0 4.07927,2.71843 5.1151126,6.5955345 88.518639 0 0 6.88482,3.40729 5.1151126,6.5955345 88.518639 0 0 4.308553,-1.745 2.3067222,3.3722305 87.118315 0 0 3.460298,1.43929 z" /><path
           id="path2011"
           style="fill:url(#linearGradient14041);fill-opacity:1;stroke-width:0.0470126"
           d="m 31.200369,107.56926 a 2.2329738,3.365128 87.343021 0 0 3.049933,-2.00682 4.4627945,5.7765116 89.141709 0 0 2.532828,0.23077 4.4627945,5.7765116 89.141709 0 0 5.18423,-4.9089 4.4627945,5.7765116 89.141709 0 0 -6.23057,-3.971919 5.2889875,8.5116121 86.936208 0 0 -8.153614,-2.501509 5.2889875,8.5116121 86.936208 0 0 -7.504376,4.061074 4.9513146,6.5819919 88.681021 0 0 -0.152232,0.05429 3.1115024,5.4171529 86.58429 0 0 -2.417764,-0.123674 3.1115024,5.4171529 86.58429 0 0 -5.003251,3.533128 3.1115024,5.4171529 86.58429 0 0 4.070968,2.63133 4.9513146,6.5819919 88.681021 0 0 6.870808,3.29813 4.9513146,6.5819919 88.681021 0 0 4.299785,-1.6891 2.2329738,3.365128 87.343021 0 0 3.453255,1.39319 z" /></g><path
         id="path2013"
         style="fill:url(#linearGradient16953);fill-opacity:1;stroke-width:0.0412876"
         d="m 56.907889,120.3151 a 1.9684966,2.9441496 87.29007 0 0 -2.668342,1.76915 3.9342723,5.0537932 89.115043 0 0 -2.215934,-0.20344 3.9342723,5.0537932 89.115043 0 0 -4.535604,4.32755 3.9342723,5.0537932 89.115043 0 0 5.451032,3.50155 4.6625255,7.446848 86.882803 0 0 7.133477,2.20525 4.6625255,7.446848 86.882803 0 0 6.565466,-3.58013 4.3649272,5.758511 88.643821 0 0 0.133186,-0.0479 2.7429414,4.7395167 86.532103 0 0 2.115267,0.10901 2.7429414,4.7395167 86.532103 0 0 4.377269,-3.11471 2.7429414,4.7395167 86.532103 0 0 -3.561629,-2.31972 4.3649272,5.758511 88.643821 0 0 -6.011168,-2.90755 4.3649272,5.758511 88.643821 0 0 -3.761818,1.48907 1.9684966,2.9441496 87.29007 0 0 -3.021202,-1.22818 z"
         clip-path="url(#clipPath48383)" /></g><g
       id="g52709"
       transform="matrix(0.00488497,0,0,0.00488497,71.356688,163.55565)"
       style="fill:url(#linearGradient52729);fill-opacity:1;stroke:#ffffff;stroke-width:13.3848;stroke-dasharray:none;stroke-dashoffset:773.56;stroke-opacity:0.126674"
       clip-path="url(#clipPath67793)"><path
         style="display:inline;fill:url(#linearGradient60061);fill-opacity:1;stroke:#ffffff;stroke-width:13.3848;stroke-dasharray:none;stroke-dashoffset:773.56;stroke-opacity:0.126674"
         d="m 1116.9905,2124.7745 c -10.3671,-1.5831 -29.256,-6.0715 -36.2465,-8.6128 -10.2545,-3.728 -13.7089,-7.8723 -23.2355,-27.8755 -10.8559,-22.7946 -11.8398,-24.7468 -17.5626,-34.8461 -2.757,-4.8653 -7.6289,-15.0653 -10.8263,-22.6667 -3.1975,-7.6013 -9.7846,-22.7433 -14.638,-33.6489 -4.8534,-10.9056 -8.8244,-20.7648 -8.8244,-21.9093 0,-1.1444 -2.4059,-7.9479 -5.3463,-15.1187 -2.94045,-7.1709 -6.94675,-19.5117 -8.90275,-27.4241 -3.2295,-13.0634 -3.5654,-16.8383 -3.6537,-41.0528 -0.1032,-28.3132 0.7283,-40.5231 3.882,-57.0063 3.1869,-16.6565 4.7009,-21.9017 12.98675,-44.9937 18.3206,-51.0576 32.5743,-81.079 52.0876,-109.7072 12.2984,-18.0431 17.0712,-26.327 28.2086,-48.9595 4.15,-8.4333 8.378,-16.8656 9.3957,-18.7384 1.0177,-1.8727 3.1087,-6.768 4.6466,-10.8784 1.5379,-4.1105 3.6696,-8.1984 4.7371,-9.0844 2.8075,-2.33 13.3126,-36.3089 14.7859,-47.8249 0.3184,-2.4894 1.1372,-6.9894 1.8195,-10 0.6822,-3.0107 0.9899,-10.5739 0.6837,-16.8072 -0.8449,-17.2012 -4.654,-27.2847 -16.873,-44.6667 -15.3181,-21.7907 -34.7266,-57.458 -39.1408,-71.9299 -3.2843,-10.7673 -4.791,-13.0785 -6.6088,-10.1372 -0.4305,0.6966 -4.5159,4.114 -9.0787,7.5947 -11.9164,9.0899 -27.3844,20.9667 -42.2913,32.4724 -90.81095,70.0917 -146.82875,107.5805 -188.67135,126.2645 -11.8296,5.2823 -14.9672,6.5488 -44,17.7616 -8.0667,3.1155 -20.6667,8.047 -28,10.9588 -7.3334,2.9119 -25.9334,9.9935 -41.3334,15.7368 -37.8626,14.1207 -41.9357,16.0478 -46.6666,22.079 -10.4564,13.3304 -17.1013,20.7404 -23.2427,25.9188 -3.6811,3.104 -7.0478,6.762 -7.4816,8.1288 -0.4339,1.3669 -10.233,11.9352 -21.7759,23.4852 -11.5428,11.5498 -28.4524,29.0001 -37.5768,38.7782 -14.389,15.42 -24.712,25.449 -63.923,62.1026 -26.5171,24.7874 -57.9495,47.7369 -86,62.7902 -6.6,3.5419 -13.8,7.7742 -16,9.4048 -7.5772,5.6167 -26.6839,15.1318 -34.6667,17.264 -9.4434,2.5223 -33.7721,2.8774 -45.9423,0.6704 -10.8856,-1.9738 -26.6419,-7.3232 -37.9458,-12.8826 -11.10066,-5.4596 -29.51452,-21.719 -36.62169,-32.337 -9.03783,-13.5022 -10.14023,-16.8468 -10.14895,-30.7908 -0.007,-11.578 0.37107,-13.467 4.40162,-21.9792 2.42525,-5.1218 5.33829,-10.3388 6.47344,-11.5932 2.3797,-2.6294 13.8291,-9.2608 48.45038,-28.0616 45.9019,-24.9268 60.8709,-34.6781 94.6979,-61.6893 5.5171,-4.4055 12.1171,-9.6179 14.6666,-11.5829 8.2947,-6.3935 33.8984,-26.5511 36.6469,-28.8519 1.473,-1.2331 6.273,-5.2279 10.6667,-8.8775 25.4963,-21.1784 74.9519,-69.1286 86.6693,-84.031 11.8715,-15.0986 28.006,-30.2446 47.3192,-44.42 11.4634,-8.4139 30.7033,-24.4168 41.1337,-34.2132 18.9226,-17.7724 90.3211,-106.5989 99.6978,-124.0335 l 3.5855,-6.6667 -9.2085,8.6816 c -40.11,37.8148 -64.2316,51.5983 -104.7917,59.8796 -6.8292,1.3944 -16.0168,2.944 -20.4168,3.4435 -4.4,0.4995 -10.1,1.1605 -12.6666,1.4691 -11.6415,1.399 -51.3203,0.5577 -67.3334,-1.4279 -40.9376,-5.0761 -88.2921,-20.2191 -137.5475,-43.9849 -13.3687,-6.4504 -18.6078,-8.3458 -22,-7.9594 -58.4795,6.6629 -69.3493,7.5065 -89.11914,6.9162 -29.74169,-0.8879 -35.32529,-3.9359 -29.2035,-15.9419 5.39753,-10.5857 20.76376,-32.3195 29.5275,-41.7635 4.77434,-5.1448 13.64874,-12.9448 19.72104,-17.3333 6.0722,-4.3885 23.9962,-17.6262 39.831,-29.4172 73.394,-54.6509 77.1769,-57.0805 110.124,-70.7271 6.6,-2.7338 16.2,-6.7072 21.3333,-8.8299 5.1333,-2.1227 12.6333,-4.4596 16.6667,-5.1931 11.9602,-2.1751 52.8454,-15.9564 81.3333,-27.4153 14.6169,-5.8795 40.1156,-19.0045 50.6578,-26.0752 17.9901,-12.0661 40.5841,-31.3479 70.6543,-60.2966 15.8485,-15.2575 22.3484,-21.8955 63.8761,-65.23296 19.373,-20.2173 22.7839,-22.9824 34.4318,-27.9131 4.2423,-1.7959 11.9133,-5.0478 17.0467,-7.2266 15.3982,-6.5355 36.8288,-17.0234 45.1582,-22.0999 4.3036,-2.6229 14.2073,-7.463 22.008,-10.7556 15.4555,-6.5238 76.9933,-37.08933 79.2841,-39.38014 0.779,-0.77899 3.6335,-1.41635 6.3434,-1.41635 2.7099,0 9.173,-1.8068 14.3624,-4.0151 20.153,-8.57588 29.9534,-11.54882 59.51045,-18.05254 46.9581,-10.33261 95.6987,-2.82566 127.4788,19.63406 1.6942,1.19736 4.6385,0.5117 14,-3.26027 6.52,-2.62708 17.2545,-6.28579 23.8545,-8.13048 19.1068,-5.34031 63.7266,-13.93656 83.3334,-16.0546 24.5536,-2.65245 59.1204,-1.33943 86,3.26672 11.9032,2.03975 30.178,0.93448 44,-2.66115 5.8666,-1.52613 25.3666,-7.50389 43.3333,-13.2839 17.9667,-5.78002 37.4667,-11.83244 43.3333,-13.44986 5.8667,-1.61741 12.1667,-3.46478 14,-4.10528 7.8051,-2.72674 42.7083,-10.79858 68.6667,-15.88005 15.4,-3.01463 33.4,-6.64828 40,-8.07479 51.24,-11.07493 102.3739,-14.57036 145.7857,-9.96565 l 19.119,2.02795 9.5477,-6.52094 c 23.4011,-15.9827 53.3936,-33.2045 86.8809,-49.88741 55.4234,-27.61107 92.596,-39.03851 187.7518,-57.71777 l 18.4185,-3.61558 4.0875,-8.12668 c 9.5946,-19.07572 22.3129,-35.28428 47.7422,-60.84414 13.1088,-13.17612 19.3303,-18.94091 37.5867,-34.82812 1.3981,-1.21674 5.0243,-4.21674 8.0579,-6.66667 11.8001,-9.52945 37.215,-31.86337 55.4173,-48.69897 30.9951,-28.66795 48.1813,-40.73132 76.9455,-54.00926 33.407,-15.42117 39.326,-18.37985 39.326,-19.6579 0,-0.77483 -8.6068,-12.99922 -19.1262,-27.16531 -30.432,-40.9816 -41.631,-58.90196 -53.9046,-86.25631 -15.2168,-33.91396 -19.8604,-59.61113 -18.5524,-102.66666 0.8225,-27.07684 2.4334,-36.04274 8.8909,-49.48632 10.1976,-21.23012 28.3079,-36.96569 48.6923,-42.3076 27.8992,-7.31121 68.5601,3.55653 105.3333,28.15319 16.1895,10.82871 22.7895,16.14005 39.8607,32.07789 7.9901,7.45956 15.0401,13.76284 15.6666,14.00728 0.6267,0.24445 1.1394,-0.78915 1.1394,-2.29687 0,-3.74843 8.938,-30.01484 12.8825,-37.85861 12.798,-25.44861 32.19,-44.10701 60.7219,-58.42496 20.5609,-10.318002 29.8853,-12.460472 54.3956,-12.498562 17.6688,-0.0275 22.203,0.41274 31.2578,3.03456 26.0788,7.551072 46.1002,23.386952 61.0236,48.266662 12.6415,21.07533 31.1782,56.8253 35.1188,67.73036 2.0411,5.64831 5.7603,14.76964 8.265,20.26964 2.5046,5.5 7.5518,17.5 11.216,26.66667 11.2128,28.05172 23.4474,50.77728 30.191,56.07972 1.977,1.5544 8.0419,6.82236 13.4775,11.70657 12.266,11.02142 26.0129,21.64596 46.3845,35.84907 8.6528,6.03279 22.3324,16.12219 30.3991,22.42089 8.0667,6.29872 23.4808,17.41228 34.2537,24.69683 23.0091,15.55861 29.7378,21.94557 40.0476,38.01436 13.9283,21.70835 16.7926,33.41159 12.5687,51.35465 -0.9653,4.10048 -1.5341,8.60048 -1.2643,10 0.27,1.39952 0.8531,11.54458 1.2959,22.54458 0.9805,24.35697 3.0445,30.20969 14.7181,41.73509 12.419,12.26128 23.4696,19.16204 83.7136,52.27627 17.8104,9.78981 42.7003,32.24144 47.8794,43.18893 12.628,26.69343 0.667,68.50747 -27.8794,97.46287 -15.3101,15.52956 -30.1818,24.32725 -51.4056,30.41028 -6.0896,1.74536 -25.058,4.92656 -29.3754,4.92656 -0.6902,0 -0.3467,2.17328 0.7632,4.82949 1.1098,2.65623 2.0178,6.1848 2.0178,7.84125 0,1.65647 1.5616,7.1332 3.4702,12.17051 3.1952,8.43336 3.3666,9.90744 2.164,18.61168 -1.9251,13.93219 -7.6607,24.81915 -20.2455,38.42893 -15.1283,16.36039 -50.2353,37.63679 -70.722,42.86039 -20.7748,5.2972 -42.6979,2.9476 -62.1919,-6.6652 -12.8996,-6.3611 -20.5498,-12.1362 -38.629,-29.16075 l -10.8208,-10.18969 -10.2964,1.97003 c -5.6631,1.08352 -14.4831,1.97002 -19.6002,1.97002 -10.8773,0 -10.5805,-0.13566 -30.4617,13.92559 -8.4333,5.9646 -18.4377,12.7378 -22.232,15.0515 -6.5877,4.0173 -41.4155,16.3563 -46.1667,16.3563 -1.2473,0 -2.268,0.3018 -2.268,0.6706 0,1.2402 5.3167,47.7951 7.9176,69.3294 1.4171,11.73326 2.9347,24.93326 3.3724,29.33326 0.7235,7.2728 1.5799,14.7656 5.9434,52 0.7734,6.6 1.7349,16.5 2.1366,22 0.4018,5.5 1.2959,14.5 1.9871,20 0.6913,5.5 2.766,23.2 4.6105,39.3333 1.8446,16.1334 3.9664,31.5364 4.7154,34.229 0.9926,3.5694 4.6968,8.0475 13.6726,16.5297 20.2983,19.1819 26.5616,22.0443 56.3111,25.7351 5.8667,0.7279 15.7667,2.8669 22,4.7533 18.3809,5.5629 36.9613,11.4238 53.3752,16.8365 8.4564,2.7886 19.5564,5.7547 24.6667,6.5914 5.1104,0.8366 14.9914,2.7304 21.9581,4.2085 6.9667,1.4781 20.7667,4.3852 30.6667,6.4603 9.9,2.0751 27.3,5.8878 38.6666,8.4726 22.2395,5.0574 31.7554,6.9841 56.6667,11.4737 24.9679,4.4997 58.91,13.9316 69.7767,19.3896 10.4582,5.2529 21.7608,14.223 30.3068,24.0525 16.4889,18.9657 26.6713,28.7856 41.0629,39.6009 8.1695,6.1393 21.7536,16.3317 30.1869,22.6497 8.4334,6.318 16.5334,12.5938 18,13.9463 1.4667,1.3524 8.9667,7.0811 16.6667,12.7304 15.9975,11.7369 23.5363,15.6221 92,47.4137 85.9844,39.9274 91.4055,43.5567 109.0201,72.9867 8.138,13.5969 10.1032,20.2883 9.36,31.87 -1.3565,21.1363 -15.8324,37.3411 -42.058,47.0809 -13.206,4.9046 -39.2364,5.7984 -54.7338,1.8795 -15.8112,-3.9984 -32.9435,-11.1657 -54.255,-22.6976 -10.2666,-5.5555 -29.1666,-14.9791 -42,-20.9412 -12.8333,-5.9621 -25.996,-12.1328 -29.2504,-13.7125 -3.2544,-1.5798 -7.0189,-2.8723 -8.3656,-2.8723 -1.3465,0 -7.0838,-4.6101 -12.7494,-10.2447 -21.9816,-21.8612 -41.3208,-33.7784 -68.9679,-42.4993 -40.1168,-12.6544 -55.4064,-19.8776 -83.9761,-39.6724 l -18.6427,-12.9169 -8.6907,-0.071 c -8.8106,-0.072 -12.5992,-0.316 -40.0238,-2.5805 -8.4334,-0.6964 -27.0334,-1.9058 -41.3334,-2.6875 -14.3,-0.7817 -35,-2.0327 -46,-2.7799 -11,-0.7472 -29.3,-1.9061 -40.6666,-2.5753 -11.3667,-0.6692 -25.1667,-1.5495 -30.6667,-1.9561 -24.2887,-1.7958 -104.6739,-7.3246 -118,-8.116 -16.7377,-0.994 -16.6801,-1.8607 -0.7201,10.8466 28.2696,22.5084 79.0708,76.1356 131.9144,139.2528 12.0346,14.3746 34.8057,50.8484 34.8057,55.7508 0,0.9226 2.55,2.7786 5.6667,4.1244 3.8781,1.6748 10.1872,7.2788 19.9893,17.7559 26.3483,28.1623 34.6071,40.4661 45.8915,68.3689 10.0694,24.8986 13.8069,58.0894 8.9788,79.7368 -5.3006,23.7656 -17.445,38.3582 -37.468,45.0214 -7.421,2.4696 -10.7122,2.8068 -21.5742,2.2105 -18.6226,-1.0221 -37.0333,-7.9636 -62.8052,-23.6796 -43.5986,-26.5871 -80.8204,-72.5809 -121.3554,-149.9557 -29.5264,-56.3611 -37.2623,-67.3723 -73.0958,-104.0447 -29.1216,-29.8033 -46.7502,-44.8893 -67.561,-57.816 -12.7815,-7.9393 -46.5484,-24.1016 -58.5636,-28.0311 -27.6267,-9.0349 -64.4684,-15.3873 -108.7698,-18.7542 -9.9,-0.7526 -21,-1.6318 -24.6666,-1.954 -3.6667,-0.3223 -14.4667,-0.9492 -24,-1.3931 -9.5334,-0.4439 -20.0334,-1.0539 -23.3334,-1.3556 -3.3,-0.3016 -12,-0.92 -19.3333,-1.3743 -55.0889,-3.412 -109.4357,-11.4741 -137.9851,-20.4696 l -8.6516,-2.726 -12.6817,7.2338 c -23.5311,13.4224 -41.4404,19.7781 -60.6816,21.535 -17.7193,1.6179 -59.2697,-12.1394 -74.1287,-24.544 -1.5193,-1.2684 -4.0038,-3.3562 -5.5209,-4.6396 -2.6109,-2.2085 -4.3749,-2.8614 -6.7089,-2.4828 -0.5638,0.092 -5.3638,0.8052 -10.6667,1.5863 -5.3028,0.7811 -13.2493,1.9547 -17.6589,2.6081 -17.8458,2.6446 -88.4503,5.5007 -186.4274,7.5418 -27.0801,0.564 -61.5378,-1.2528 -79.6201,-4.1983 -1.7976,-0.2928 -7.7684,-1.1996 -13.2684,-2.0151 -23.2092,-3.441 -52.836,-11.4172 -80.6667,-21.7172 -19.7088,-7.2941 -62.0334,-27.0881 -79.3333,-37.1017 -8.8332,-5.1132 -68.6105,-35.8879 -69.7089,-35.8879 -1.9914,0 -16.5119,21.9383 -21.6212,32.6667 -11.3214,23.7713 -15.7331,43.3112 -22.0036,97.4555 -5.8794,50.7662 -8.8531,66.2229 -17.4658,90.7845 -4.309,12.2883 -16.0324,36.9056 -19.3022,40.5316 -1.0442,1.1577 -1.8983,2.5775 -1.8983,3.1548 0,3.3499 -43.242,59.9544 -62.5447,81.8721 -4.1004,4.656 -9.1108,10.6203 -11.1343,13.2542 -2.0234,2.6337 -10.1707,11.7244 -18.1051,20.2013 -7.9344,8.4769 -18.2138,19.8288 -22.8433,25.2263 -4.6294,5.3974 -10.3814,10.6344 -12.7822,11.6376 -3.0859,1.2893 -7.8171,6.4973 -16.1444,17.7712 -12.6792,17.1657 -32.689,45.9694 -39.4431,56.7776 -2.2914,3.6666 -6.1081,9.6666 -8.4816,13.3333 -2.3736,3.6667 -5.6081,9.9563 -7.1879,13.9769 -1.5798,4.0207 -4.2841,10.3966 -6.0095,14.1688 -5.7704,12.6151 -15.5569,41.0659 -18.0525,52.481 -2.9425,13.4588 -2.5445,28.049 1.0498,38.4853 2.3874,6.9316 2.6509,7.1795 10.3975,9.7773 19.5882,6.569 31.0667,14.3399 41.8753,28.3499 12.3697,16.0333 15.743,38.2309 8.5431,56.216 -6.7261,16.8016 -24.5064,32.0891 -45.0326,38.7192 -8.7892,2.8389 -13.8379,3.5508 -27.4378,3.8685 -9.1667,0.2143 -18.4667,0.1147 -20.6667,-0.2213 z m 1390,-762.5836 c 0,-1.3968 -20.2764,-31.7543 -28.4341,-42.5713 -15.0339,-19.9345 -38.4288,-46 -41.2871,-46 -1.9359,0 -24.7933,11.8194 -32.7101,16.9141 -22.0275,14.1754 -36.8508,21.256 -65.3111,31.1971 -4.6251,1.6155 -7.9251,3.3641 -7.3333,3.8858 1.9677,1.7349 19.559,5.2185 33.7424,6.6818 7.7,0.7944 14.9,1.7026 16,2.0181 1.1,0.3155 4.4,0.9221 7.3333,1.3479 17.476,2.5368 30.8555,5.3063 51.4656,10.6531 12.7605,3.3104 32.2011,8.359 43.2011,11.219 20.8456,5.4199 23.3333,5.9161 23.3333,4.6544 z"
         id="path52705"
         inkscape:connector-curvature="0"
         sodipodi:nodetypes="cccccsscccccsscccccccccccccccccccccccccccccccccccccsscccsccccccccccsccccsccsccscsccscsssccssscccsccsccccsssccscccsccccccccccccccccscsccsscsccccccccsccssccccccccccccssccccccccscccccccsccccccssscsccscccccccscccccsccscccccccccccccsccccsccsccsccccccccsccccscsccccscscs" /><path
         style="display:inline;fill:url(#linearGradient60063);fill-opacity:1;stroke:#ffffff;stroke-width:13.3848;stroke-dasharray:none;stroke-dashoffset:773.56;stroke-opacity:0.126674"
         d=""
         id="path52707"
         inkscape:connector-curvature="0" /></g></g><g
     inkscape:groupmode="layer"
     id="layer2"
     inkscape:label="Morning"
     style="display:inline"
     transform="translate(-61.510311,-13.889235)"><g
       id="g48506"
       transform="translate(50.953056,8.2300898)"
       clip-path="url(#clipPath67784)"><ellipse
         style="fill:url(#linearGradient1869);fill-opacity:1;stroke-width:0.129023"
         id="path1838"
         cx="47.46674"
         cy="42.105789"
         rx="36.909485"
         ry="36.446636"
         clip-path="url(#clipPath48487)" /><g
         id="g6160"
         transform="matrix(0.48764841,0,0,0.48764841,-5.4117833,-50.840362)"
         clip-path="url(#clipPath48481)"><path
           style="fill:#428550;fill-opacity:1;stroke:none;stroke-width:0.264583px;stroke-linecap:butt;stroke-linejoin:miter;stroke-opacity:1"
           d="m 80.53787,259.30948 c 0,0 39.48035,-38.07791 51.38266,-37.91172 20.31457,0.28365 71.35082,57.84673 71.35082,57.84673 l -71.06939,31.65967 -66.30605,-31.65967 z"
           id="path5046-7"
           sodipodi:nodetypes="cscccc" /><path
           id="path6122-5"
           style="fill:#a4d2ae;fill-opacity:1;stroke:none;stroke-width:0.264583px;stroke-linecap:butt;stroke-linejoin:miter;stroke-opacity:1"
           d="m 131.92062,221.39766 c -8.41566,-0.11751 -30.56721,18.84383 -42.853201,29.9868 1.47416,-0.55449 2.72664,-1.18387 3.590479,-1.94666 8.258622,-7.20311 16.593682,-14.3897 25.779822,-20.40185 3.16372,-1.93117 6.26485,-4.09446 9.95443,-4.89221 0.77262,-0.20577 4.10198,-0.0428 4.88239,0.0553 1.99156,0.28513 3.99753,1.04018 5.92212,1.93424 6.55811,3.20823 12.42381,7.48745 18.08055,12.05405 9.36793,7.66611 22.43024,18.07251 34.08423,28.27062 -16.34183,-16.97403 -45.30773,-44.86296 -59.44082,-45.06029 z" /></g><path
         id="path4120"
         style="fill:#ffffff;fill-opacity:1;stroke-width:0.0643374"
         d="m 21.234144,23.570479 a 4.240309,3.3188559 0 0 0 -4.138809,2.600781 7.2736884,6.6377135 0 0 0 -3.135011,-0.648538 7.2736884,6.6377135 0 0 0 -7.273534,6.637661 7.2736884,6.6377135 0 0 0 7.1699,6.634222 10.726968,7.8597379 0 0 0 9.812148,4.690826 10.726968,7.8597379 0 0 0 10.04397,-5.101563 8.2894386,7.3629764 0 0 0 0.199272,-0.06191 6.8280402,4.6232335 0 0 0 3.007969,0.476086 6.8280402,4.6232335 0 0 0 6.827876,-4.623273 6.8280402,4.6232335 0 0 0 -4.678963,-4.388172 8.2894386,7.3629764 0 0 0 -8.078911,-5.714483 8.2894386,7.3629764 0 0 0 -5.653356,1.979018 4.240309,3.3188559 0 0 0 -4.102551,-2.480654 z"
         clip-path="url(#clipPath48475)" /><path
         id="path4120-3"
         style="fill:#ffffff;fill-opacity:1;stroke-width:0.0641458"
         d="m 78.741815,32.491715 a 3.0933982,4.5222835 87.118315 0 0 4.098412,-2.780293 6.1828199,7.7623697 89.024164 0 0 3.403542,0.319702 6.1828199,7.7623697 89.024164 0 0 6.966418,-6.800901 6.1828199,7.7623697 89.024164 0 0 -8.37246,-5.50281 7.3268109,11.438729 86.711515 0 0 -10.956591,-3.465649 7.3268109,11.438729 86.711515 0 0 -10.084164,5.626317 6.8595516,8.8448511 88.518639 0 0 -0.204564,0.07522 4.3102571,7.2802527 86.36637 0 0 -3.248923,-0.171345 4.3102571,7.2802527 86.36637 0 0 -6.723223,4.894918 4.3102571,7.2802527 86.36637 0 0 5.470449,3.645504 6.8595516,8.8448511 88.518639 0 0 9.232793,4.569309 6.8595516,8.8448511 88.518639 0 0 5.777927,-2.340112 3.0933982,4.5222835 87.118315 0 0 4.640384,1.930141 z"
         clip-path="url(#clipPath48469)" /><g
         id="g6156"
         style="display:inline"
         transform="matrix(0.48764841,0,0,0.48764841,-5.4117833,-50.840362)"
         clip-path="url(#clipPath48463)"><path
           style="fill:#428550;fill-opacity:1;stroke:none;stroke-width:0.264583px;stroke-linecap:butt;stroke-linejoin:miter;stroke-opacity:1"
           d="m 22.366756,249.18575 c 0,0 39.48035,-38.07791 51.382661,-37.91172 20.31457,0.28365 71.350823,57.84673 71.350823,57.84673 L 74.030851,300.78043 7.7247956,269.12076 Z"
           id="path5046"
           sodipodi:nodetypes="cscccc" /><path
           id="path6122"
           style="fill:#a4d2ae;fill-opacity:1;stroke:none;stroke-width:0.264583px;stroke-linecap:butt;stroke-linejoin:miter;stroke-opacity:1"
           d="m 73.749504,211.27393 c -8.415659,-0.11751 -30.567206,18.84383 -42.853199,29.9868 1.47416,-0.55449 2.72664,-1.18387 3.590479,-1.94666 8.258627,-7.20311 16.593687,-14.3897 25.779822,-20.40185 3.163719,-1.93117 6.264851,-4.09446 9.954431,-4.89221 0.772621,-0.20577 4.101983,-0.0428 4.882389,0.0553 1.991564,0.28513 3.997527,1.04018 5.922119,1.93424 6.558109,3.20823 12.423807,7.48745 18.08055,12.05405 9.367935,7.66611 22.430245,18.07251 34.084225,28.27062 C 116.8485,239.36019 87.882592,211.47126 73.749504,211.27393 Z" /></g><path
         id="path7102"
         style="fill:url(#linearGradient24460);fill-opacity:1;stroke-width:0.129112"
         d="m 49.105727,100.46024 a 8.6331016,6.5648773 0 0 0 -8.42645,5.14448 14.808942,13.129758 0 0 0 -6.382759,-1.28283 14.808942,13.129758 0 0 0 -14.808628,13.12964 14.808942,13.129758 0 0 0 14.597632,13.12286 21.839682,15.546989 0 0 0 19.977146,9.27871 21.839682,15.546989 0 0 0 20.449126,-10.09117 16.876969,14.564368 0 0 0 0.40571,-0.12246 13.90162,9.1450072 0 0 0 6.124107,0.94172 13.90162,9.1450072 0 0 0 13.901285,-9.14508 13.90162,9.1450072 0 0 0 -9.526183,-8.68005 16.876969,14.564368 0 0 0 -16.448345,-11.30355 16.876969,14.564368 0 0 0 -11.510008,3.9146 8.6331016,6.5648773 0 0 0 -8.352633,-4.90687 z"
         clip-path="url(#clipPath48457)"
         transform="matrix(0.48764841,0,0,0.48764841,-2.8164483,-24.713709)" /><path
         id="path7104"
         style="fill:url(#linearGradient23210);fill-opacity:1;stroke-width:0.129393"
         d="m 167.76781,117.32277 a 6.2471703,9.1116789 87.099709 0 0 8.2576,-5.61488 12.486376,15.639853 89.013895 0 0 6.85755,0.64565 12.486376,15.639853 89.013895 0 0 14.03614,-13.734625 12.486376,15.639853 89.013895 0 0 -16.86907,-11.113084 14.796593,23.047252 86.693136 0 0 -22.07565,-6.998978 14.796593,23.047252 86.693136 0 0 -20.31786,11.362509 13.853041,17.820884 88.504646 0 0 -0.41216,0.151909 8.7046074,14.668597 86.348735 0 0 -6.54602,-0.346037 8.7046074,14.668597 86.348735 0 0 -13.54614,9.885426 8.7046074,14.668597 86.348735 0 0 11.02201,7.3622 13.853041,17.820884 88.504646 0 0 18.6025,9.22786 13.853041,17.820884 88.504646 0 0 11.64152,-4.72593 6.2471703,9.1116789 87.099709 0 0 9.34958,3.89798 z"
         clip-path="url(#clipPath48451)"
         transform="matrix(0.48764841,0,0,0.48764841,-2.8164483,-24.713709)" /><circle
         style="mix-blend-mode:normal;fill:#fff475;fill-opacity:0.293119;stroke-width:0.140728;filter:url(#filter25241)"
         id="circle25219"
         cx="54.116051"
         cy="43.738491"
         r="12.179665"
         transform="matrix(1.1547083,0,0,1.1547083,-7.3138715,-7.2958764)"
         clip-path="url(#clipPath48445)" /><circle
         style="fill:url(#linearGradient25217);fill-opacity:1;stroke-width:0.120203"
         id="circle25201"
         cx="55.174385"
         cy="43.209324"
         r="10.40327"
         clip-path="url(#clipPath48439)" /></g><g
       id="g54048"
       transform="matrix(0.00488497,0,0,0.00488497,71.356688,65.984252)"
       style="display:inline;fill:url(#linearGradient54794);fill-opacity:1;stroke:#ffffff;stroke-width:13.3848;stroke-dasharray:none;stroke-dashoffset:773.56;stroke-opacity:0.126674"
       clip-path="url(#clipPath67778)"><path
         style="display:inline;fill:url(#linearGradient60065);fill-opacity:1;stroke:#ffffff;stroke-width:13.3848;stroke-dasharray:none;stroke-dashoffset:773.56;stroke-opacity:0.126674"
         d="m 1116.9905,2124.7745 c -10.3671,-1.5831 -29.256,-6.0715 -36.2465,-8.6128 -10.2545,-3.728 -13.7089,-7.8723 -23.2355,-27.8755 -10.8559,-22.7946 -11.8398,-24.7468 -17.5626,-34.8461 -2.757,-4.8653 -7.6289,-15.0653 -10.8263,-22.6667 -3.1975,-7.6013 -9.7846,-22.7433 -14.638,-33.6489 -4.8534,-10.9056 -8.8244,-20.7648 -8.8244,-21.9093 0,-1.1444 -2.4059,-7.9479 -5.3463,-15.1187 -2.94045,-7.1709 -6.94675,-19.5117 -8.90275,-27.4241 -3.2295,-13.0634 -3.5654,-16.8383 -3.6537,-41.0528 -0.1032,-28.3132 0.7283,-40.5231 3.882,-57.0063 3.1869,-16.6565 4.7009,-21.9017 12.98675,-44.9937 18.3206,-51.0576 32.5743,-81.079 52.0876,-109.7072 12.2984,-18.0431 17.0712,-26.327 28.2086,-48.9595 4.15,-8.4333 8.378,-16.8656 9.3957,-18.7384 1.0177,-1.8727 3.1087,-6.768 4.6466,-10.8784 1.5379,-4.1105 3.6696,-8.1984 4.7371,-9.0844 2.8075,-2.33 13.3126,-36.3089 14.7859,-47.8249 0.3184,-2.4894 1.1372,-6.9894 1.8195,-10 0.6822,-3.0107 0.9899,-10.5739 0.6837,-16.8072 -0.8449,-17.2012 -4.654,-27.2847 -16.873,-44.6667 -15.3181,-21.7907 -34.7266,-57.458 -39.1408,-71.9299 -3.2843,-10.7673 -4.791,-13.0785 -6.6088,-10.1372 -0.4305,0.6966 -4.5159,4.114 -9.0787,7.5947 -11.9164,9.0899 -27.3844,20.9667 -42.2913,32.4724 -90.81095,70.0917 -146.82875,107.5805 -188.67135,126.2645 -11.8296,5.2823 -14.9672,6.5488 -44,17.7616 -8.0667,3.1155 -20.6667,8.047 -28,10.9588 -7.3334,2.9119 -25.9334,9.9935 -41.3334,15.7368 -37.8626,14.1207 -41.9357,16.0478 -46.6666,22.079 -10.4564,13.3304 -17.1013,20.7404 -23.2427,25.9188 -3.6811,3.104 -7.0478,6.762 -7.4816,8.1288 -0.4339,1.3669 -10.233,11.9352 -21.7759,23.4852 -11.5428,11.5498 -28.4524,29.0001 -37.5768,38.7782 -14.389,15.42 -24.712,25.449 -63.923,62.1026 -26.5171,24.7874 -57.9495,47.7369 -86,62.7902 -6.6,3.5419 -13.8,7.7742 -16,9.4048 -7.5772,5.6167 -26.6839,15.1318 -34.6667,17.264 -9.4434,2.5223 -33.7721,2.8774 -45.9423,0.6704 -10.8856,-1.9738 -26.6419,-7.3232 -37.9458,-12.8826 -11.10066,-5.4596 -29.51452,-21.719 -36.62169,-32.337 -9.03783,-13.5022 -10.14023,-16.8468 -10.14895,-30.7908 -0.007,-11.578 0.37107,-13.467 4.40162,-21.9792 2.42525,-5.1218 5.33829,-10.3388 6.47344,-11.5932 2.3797,-2.6294 13.8291,-9.2608 48.45038,-28.0616 45.9019,-24.9268 60.8709,-34.6781 94.6979,-61.6893 5.5171,-4.4055 12.1171,-9.6179 14.6666,-11.5829 8.2947,-6.3935 33.8984,-26.5511 36.6469,-28.8519 1.473,-1.2331 6.273,-5.2279 10.6667,-8.8775 25.4963,-21.1784 74.9519,-69.1286 86.6693,-84.031 11.8715,-15.0986 28.006,-30.2446 47.3192,-44.42 11.4634,-8.4139 30.7033,-24.4168 41.1337,-34.2132 18.9226,-17.7724 90.3211,-106.5989 99.6978,-124.0335 l 3.5855,-6.6667 -9.2085,8.6816 c -40.11,37.8148 -64.2316,51.5983 -104.7917,59.8796 -6.8292,1.3944 -16.0168,2.944 -20.4168,3.4435 -4.4,0.4995 -10.1,1.1605 -12.6666,1.4691 -11.6415,1.399 -51.3203,0.5577 -67.3334,-1.4279 -40.9376,-5.0761 -88.2921,-20.2191 -137.5475,-43.9849 -13.3687,-6.4504 -18.6078,-8.3458 -22,-7.9594 -58.4795,6.6629 -69.3493,7.5065 -89.11914,6.9162 -29.74169,-0.8879 -35.32529,-3.9359 -29.2035,-15.9419 5.39753,-10.5857 20.76376,-32.3195 29.5275,-41.7635 4.77434,-5.1448 13.64874,-12.9448 19.72104,-17.3333 6.0722,-4.3885 23.9962,-17.6262 39.831,-29.4172 73.394,-54.6509 77.1769,-57.0805 110.124,-70.7271 6.6,-2.7338 16.2,-6.7072 21.3333,-8.8299 5.1333,-2.1227 12.6333,-4.4596 16.6667,-5.1931 11.9602,-2.1751 52.8454,-15.9564 81.3333,-27.4153 14.6169,-5.8795 40.1156,-19.0045 50.6578,-26.0752 17.9901,-12.0661 40.5841,-31.3479 70.6543,-60.2966 15.8485,-15.2575 22.3484,-21.8955 63.8761,-65.23296 19.373,-20.2173 22.7839,-22.9824 34.4318,-27.9131 4.2423,-1.7959 11.9133,-5.0478 17.0467,-7.2266 15.3982,-6.5355 36.8288,-17.0234 45.1582,-22.0999 4.3036,-2.6229 14.2073,-7.463 22.008,-10.7556 15.4555,-6.5238 76.9933,-37.08933 79.2841,-39.38014 0.779,-0.77899 3.6335,-1.41635 6.3434,-1.41635 2.7099,0 9.173,-1.8068 14.3624,-4.0151 20.153,-8.57588 29.9534,-11.54882 59.51045,-18.05254 46.9581,-10.33261 95.6987,-2.82566 127.4788,19.63406 1.6942,1.19736 4.6385,0.5117 14,-3.26027 6.52,-2.62708 17.2545,-6.28579 23.8545,-8.13048 19.1068,-5.34031 63.7266,-13.93656 83.3334,-16.0546 24.5536,-2.65245 59.1204,-1.33943 86,3.26672 11.9032,2.03975 30.178,0.93448 44,-2.66115 5.8666,-1.52613 25.3666,-7.50389 43.3333,-13.2839 17.9667,-5.78002 37.4667,-11.83244 43.3333,-13.44986 5.8667,-1.61741 12.1667,-3.46478 14,-4.10528 7.8051,-2.72674 42.7083,-10.79858 68.6667,-15.88005 15.4,-3.01463 33.4,-6.64828 40,-8.07479 51.24,-11.07493 102.3739,-14.57036 145.7857,-9.96565 l 19.119,2.02795 9.5477,-6.52094 c 23.4011,-15.9827 53.3936,-33.2045 86.8809,-49.88741 55.4234,-27.61107 92.596,-39.03851 187.7518,-57.71777 l 18.4185,-3.61558 4.0875,-8.12668 c 9.5946,-19.07572 22.3129,-35.28428 47.7422,-60.84414 13.1088,-13.17612 19.3303,-18.94091 37.5867,-34.82812 1.3981,-1.21674 5.0243,-4.21674 8.0579,-6.66667 11.8001,-9.52945 37.215,-31.86337 55.4173,-48.69897 30.9951,-28.66795 48.1813,-40.73132 76.9455,-54.00926 33.407,-15.42117 39.326,-18.37985 39.326,-19.6579 0,-0.77483 -8.6068,-12.99922 -19.1262,-27.16531 -30.432,-40.9816 -41.631,-58.90196 -53.9046,-86.25631 -15.2168,-33.91396 -19.8604,-59.61113 -18.5524,-102.66666 0.8225,-27.07684 2.4334,-36.04274 8.8909,-49.48632 10.1976,-21.23012 28.3079,-36.96569 48.6923,-42.3076 27.8992,-7.31121 68.5601,3.55653 105.3333,28.15319 16.1895,10.82871 22.7895,16.14005 39.8607,32.07789 7.9901,7.45956 15.0401,13.76284 15.6666,14.00728 0.6267,0.24445 1.1394,-0.78915 1.1394,-2.29687 0,-3.74843 8.938,-30.01484 12.8825,-37.85861 12.798,-25.44861 32.19,-44.10701 60.7219,-58.42496 20.5609,-10.318002 29.8853,-12.460472 54.3956,-12.498562 17.6688,-0.0275 22.203,0.41274 31.2578,3.03456 26.0788,7.551072 46.1002,23.386952 61.0236,48.266662 12.6415,21.07533 31.1782,56.8253 35.1188,67.73036 2.0411,5.64831 5.7603,14.76964 8.265,20.26964 2.5046,5.5 7.5518,17.5 11.216,26.66667 11.2128,28.05172 23.4474,50.77728 30.191,56.07972 1.977,1.5544 8.0419,6.82236 13.4775,11.70657 12.266,11.02142 26.0129,21.64596 46.3845,35.84907 8.6528,6.03279 22.3324,16.12219 30.3991,22.42089 8.0667,6.29872 23.4808,17.41228 34.2537,24.69683 23.0091,15.55861 29.7378,21.94557 40.0476,38.01436 13.9283,21.70835 16.7926,33.41159 12.5687,51.35465 -0.9653,4.10048 -1.5341,8.60048 -1.2643,10 0.27,1.39952 0.8531,11.54458 1.2959,22.54458 0.9805,24.35697 3.0445,30.20969 14.7181,41.73509 12.419,12.26128 23.4696,19.16204 83.7136,52.27627 17.8104,9.78981 42.7003,32.24144 47.8794,43.18893 12.628,26.69343 0.667,68.50747 -27.8794,97.46287 -15.3101,15.52956 -30.1818,24.32725 -51.4056,30.41028 -6.0896,1.74536 -25.058,4.92656 -29.3754,4.92656 -0.6902,0 -0.3467,2.17328 0.7632,4.82949 1.1098,2.65623 2.0178,6.1848 2.0178,7.84125 0,1.65647 1.5616,7.1332 3.4702,12.17051 3.1952,8.43336 3.3666,9.90744 2.164,18.61168 -1.9251,13.93219 -7.6607,24.81915 -20.2455,38.42893 -15.1283,16.36039 -50.2353,37.63679 -70.722,42.86039 -20.7748,5.2972 -42.6979,2.9476 -62.1919,-6.6652 -12.8996,-6.3611 -20.5498,-12.1362 -38.629,-29.16075 l -10.8208,-10.18969 -10.2964,1.97003 c -5.6631,1.08352 -14.4831,1.97002 -19.6002,1.97002 -10.8773,0 -10.5805,-0.13566 -30.4617,13.92559 -8.4333,5.9646 -18.4377,12.7378 -22.232,15.0515 -6.5877,4.0173 -41.4155,16.3563 -46.1667,16.3563 -1.2473,0 -2.268,0.3018 -2.268,0.6706 0,1.2402 5.3167,47.7951 7.9176,69.3294 1.4171,11.73326 2.9347,24.93326 3.3724,29.33326 0.7235,7.2728 1.5799,14.7656 5.9434,52 0.7734,6.6 1.7349,16.5 2.1366,22 0.4018,5.5 1.2959,14.5 1.9871,20 0.6913,5.5 2.766,23.2 4.6105,39.3333 1.8446,16.1334 3.9664,31.5364 4.7154,34.229 0.9926,3.5694 4.6968,8.0475 13.6726,16.5297 20.2983,19.1819 26.5616,22.0443 56.3111,25.7351 5.8667,0.7279 15.7667,2.8669 22,4.7533 18.3809,5.5629 36.9613,11.4238 53.3752,16.8365 8.4564,2.7886 19.5564,5.7547 24.6667,6.5914 5.1104,0.8366 14.9914,2.7304 21.9581,4.2085 6.9667,1.4781 20.7667,4.3852 30.6667,6.4603 9.9,2.0751 27.3,5.8878 38.6666,8.4726 22.2395,5.0574 31.7554,6.9841 56.6667,11.4737 24.9679,4.4997 58.91,13.9316 69.7767,19.3896 10.4582,5.2529 21.7608,14.223 30.3068,24.0525 16.4889,18.9657 26.6713,28.7856 41.0629,39.6009 8.1695,6.1393 21.7536,16.3317 30.1869,22.6497 8.4334,6.318 16.5334,12.5938 18,13.9463 1.4667,1.3524 8.9667,7.0811 16.6667,12.7304 15.9975,11.7369 23.5363,15.6221 92,47.4137 85.9844,39.9274 91.4055,43.5567 109.0201,72.9867 8.138,13.5969 10.1032,20.2883 9.36,31.87 -1.3565,21.1363 -15.8324,37.3411 -42.058,47.0809 -13.206,4.9046 -39.2364,5.7984 -54.7338,1.8795 -15.8112,-3.9984 -32.9435,-11.1657 -54.255,-22.6976 -10.2666,-5.5555 -29.1666,-14.9791 -42,-20.9412 -12.8333,-5.9621 -25.996,-12.1328 -29.2504,-13.7125 -3.2544,-1.5798 -7.0189,-2.8723 -8.3656,-2.8723 -1.3465,0 -7.0838,-4.6101 -12.7494,-10.2447 -21.9816,-21.8612 -41.3208,-33.7784 -68.9679,-42.4993 -40.1168,-12.6544 -55.4064,-19.8776 -83.9761,-39.6724 l -18.6427,-12.9169 -8.6907,-0.071 c -8.8106,-0.072 -12.5992,-0.316 -40.0238,-2.5805 -8.4334,-0.6964 -27.0334,-1.9058 -41.3334,-2.6875 -14.3,-0.7817 -35,-2.0327 -46,-2.7799 -11,-0.7472 -29.3,-1.9061 -40.6666,-2.5753 -11.3667,-0.6692 -25.1667,-1.5495 -30.6667,-1.9561 -24.2887,-1.7958 -104.6739,-7.3246 -118,-8.116 -16.7377,-0.994 -16.6801,-1.8607 -0.7201,10.8466 28.2696,22.5084 79.0708,76.1356 131.9144,139.2528 12.0346,14.3746 34.8057,50.8484 34.8057,55.7508 0,0.9226 2.55,2.7786 5.6667,4.1244 3.8781,1.6748 10.1872,7.2788 19.9893,17.7559 26.3483,28.1623 34.6071,40.4661 45.8915,68.3689 10.0694,24.8986 13.8069,58.0894 8.9788,79.7368 -5.3006,23.7656 -17.445,38.3582 -37.468,45.0214 -7.421,2.4696 -10.7122,2.8068 -21.5742,2.2105 -18.6226,-1.0221 -37.0333,-7.9636 -62.8052,-23.6796 -43.5986,-26.5871 -80.8204,-72.5809 -121.3554,-149.9557 -29.5264,-56.3611 -37.2623,-67.3723 -73.0958,-104.0447 -29.1216,-29.8033 -46.7502,-44.8893 -67.561,-57.816 -12.7815,-7.9393 -46.5484,-24.1016 -58.5636,-28.0311 -27.6267,-9.0349 -64.4684,-15.3873 -108.7698,-18.7542 -9.9,-0.7526 -21,-1.6318 -24.6666,-1.954 -3.6667,-0.3223 -14.4667,-0.9492 -24,-1.3931 -9.5334,-0.4439 -20.0334,-1.0539 -23.3334,-1.3556 -3.3,-0.3016 -12,-0.92 -19.3333,-1.3743 -55.0889,-3.412 -109.4357,-11.4741 -137.9851,-20.4696 l -8.6516,-2.726 -12.6817,7.2338 c -23.5311,13.4224 -41.4404,19.7781 -60.6816,21.535 -17.7193,1.6179 -59.2697,-12.1394 -74.1287,-24.544 -1.5193,-1.2684 -4.0038,-3.3562 -5.5209,-4.6396 -2.6109,-2.2085 -4.3749,-2.8614 -6.7089,-2.4828 -0.5638,0.092 -5.3638,0.8052 -10.6667,1.5863 -5.3028,0.7811 -13.2493,1.9547 -17.6589,2.6081 -17.8458,2.6446 -88.4503,5.5007 -186.4274,7.5418 -27.0801,0.564 -61.5378,-1.2528 -79.6201,-4.1983 -1.7976,-0.2928 -7.7684,-1.1996 -13.2684,-2.0151 -23.2092,-3.441 -52.836,-11.4172 -80.6667,-21.7172 -19.7088,-7.2941 -62.0334,-27.0881 -79.3333,-37.1017 -8.8332,-5.1132 -68.6105,-35.8879 -69.7089,-35.8879 -1.9914,0 -16.5119,21.9383 -21.6212,32.6667 -11.3214,23.7713 -15.7331,43.3112 -22.0036,97.4555 -5.8794,50.7662 -8.8531,66.2229 -17.4658,90.7845 -4.309,12.2883 -16.0324,36.9056 -19.3022,40.5316 -1.0442,1.1577 -1.8983,2.5775 -1.8983,3.1548 0,3.3499 -43.242,59.9544 -62.5447,81.8721 -4.1004,4.656 -9.1108,10.6203 -11.1343,13.2542 -2.0234,2.6337 -10.1707,11.7244 -18.1051,20.2013 -7.9344,8.4769 -18.2138,19.8288 -22.8433,25.2263 -4.6294,5.3974 -10.3814,10.6344 -12.7822,11.6376 -3.0859,1.2893 -7.8171,6.4973 -16.1444,17.7712 -12.6792,17.1657 -32.689,45.9694 -39.4431,56.7776 -2.2914,3.6666 -6.1081,9.6666 -8.4816,13.3333 -2.3736,3.6667 -5.6081,9.9563 -7.1879,13.9769 -1.5798,4.0207 -4.2841,10.3966 -6.0095,14.1688 -5.7704,12.6151 -15.5569,41.0659 -18.0525,52.481 -2.9425,13.4588 -2.5445,28.049 1.0498,38.4853 2.3874,6.9316 2.6509,7.1795 10.3975,9.7773 19.5882,6.569 31.0667,14.3399 41.8753,28.3499 12.3697,16.0333 15.743,38.2309 8.5431,56.216 -6.7261,16.8016 -24.5064,32.0891 -45.0326,38.7192 -8.7892,2.8389 -13.8379,3.5508 -27.4378,3.8685 -9.1667,0.2143 -18.4667,0.1147 -20.6667,-0.2213 z m 1390,-762.5836 c 0,-1.3968 -20.2764,-31.7543 -28.4341,-42.5713 -15.0339,-19.9345 -38.4288,-46 -41.2871,-46 -1.9359,0 -24.7933,11.8194 -32.7101,16.9141 -22.0275,14.1754 -36.8508,21.256 -65.3111,31.1971 -4.6251,1.6155 -7.9251,3.3641 -7.3333,3.8858 1.9677,1.7349 19.559,5.2185 33.7424,6.6818 7.7,0.7944 14.9,1.7026 16,2.0181 1.1,0.3155 4.4,0.9221 7.3333,1.3479 17.476,2.5368 30.8555,5.3063 51.4656,10.6531 12.7605,3.3104 32.2011,8.359 43.2011,11.219 20.8456,5.4199 23.3333,5.9161 23.3333,4.6544 z"
         id="path54044"
         inkscape:connector-curvature="0"
         sodipodi:nodetypes="cccccsscccccsscccccccccccccccccccccccccccccccccccccsscccsccccccccccsccccsccsccscsccscsssccssscccsccsccccsssccscccsccccccccccccccccscsccsscsccccccccsccssccccccccccccssccccccccscccccccsccccccssscsccscccccccscccccsccscccccccccccccsccccsccsccsccccccccsccccscsccccscscs" /><path
         style="display:inline;fill:url(#linearGradient60067);fill-opacity:1;stroke:#ffffff;stroke-width:13.3848;stroke-dasharray:none;stroke-dashoffset:773.56;stroke-opacity:0.126674"
         d=""
         id="path54046"
         inkscape:connector-curvature="0" /></g></g></svg>
